<svg width="340" height="105" viewBox="0 0 340 105" fill="none" xmlns="http://www.w3.org/2000/svg">
<rect width="339" height="105" fill="#FCBF86"/>
<path fill-rule="evenodd" clip-rule="evenodd" d="M1 65.381L5.33333 67.4762C10.5333 69.5714 20.0667 73.7619 29.6 72.7143C38.2667 71.6667 47.8 65.381 57.3333 66.4286C66.8667 67.4762 76.4 75.8571 85.9333 77.9524C94.6 80.0476 104.133 75.8571 113.667 71.6667C123.2 67.4762 132.733 63.2857 142.267 59.619C150.933 55.4286 160.467 51.2381 170 49.1429C179.533 47.0476 189.067 47.0476 198.6 49.1429C207.267 51.2381 216.8 55.4286 226.333 56.4762C235.867 57.5238 245.4 55.4286 254.933 56.4762C263.6 57.5238 273.133 61.1905 282.667 65.381C292.2 69.5714 301.733 73.7619 311.267 68.5238C319.933 63.2857 329.467 49.1429 334.667 41.8095L339 35V90H334.667C329.467 90 319.933 90 311.267 90C301.733 90 292.2 90 282.667 90C273.133 90 263.6 90 254.933 90C245.4 90 235.867 90 226.333 90C216.8 90 207.267 90 198.6 90C189.067 90 179.533 90 170 90C160.467 90 150.933 90 142.267 90C132.733 90 123.2 90 113.667 90C104.133 90 94.6 90 85.9333 90C76.4 90 66.8667 90 57.3333 90C47.8 90 38.2667 90 29.6 90C20.0667 90 10.5333 90 5.33333 90H1V65.381Z" fill="url(#paint0_linear_1374_82)"/>
<path fill-rule="evenodd" clip-rule="evenodd" d="M0 36.5685L7.08333 39.4378C14.1667 42.3071 28.3333 48.0457 42.5 53.7843C56.6667 59.5228 70.8333 65.2614 85 56.6535C99.1667 48.0457 113.333 25.0913 127.5 20.7874C141.667 16.4835 155.833 30.8299 170 39.4378C184.167 48.0457 198.333 50.915 212.5 49.4803C226.667 48.0457 240.833 42.3071 255 38.0031C269.167 33.6992 283.333 30.8299 297.5 35.1339C311.667 39.4378 325.833 50.915 332.917 56.6535L340 62.3921V71H332.917C325.833 71 311.667 71 297.5 71C283.333 71 269.167 71 255 71C240.833 71 226.667 71 212.5 71C198.333 71 184.167 71 170 71C155.833 71 141.667 71 127.5 71C113.333 71 99.1667 71 85 71C70.8333 71 56.6667 71 42.5 71C28.3333 71 14.1667 71 7.08333 71H0V36.5685Z" fill="url(#paint1_linear_1374_82)"/>
<defs>
<linearGradient id="paint0_linear_1374_82" x1="170" y1="35" x2="170" y2="90" gradientUnits="userSpaceOnUse">
<stop stop-color="#FE8B14"/>
<stop offset="1" stop-color="#FE8B14" stop-opacity="0"/>
</linearGradient>
<linearGradient id="paint1_linear_1374_82" x1="170" y1="20" x2="170" y2="71" gradientUnits="userSpaceOnUse">
<stop stop-color="#F8B774"/>
<stop offset="1" stop-color="#DF872D" stop-opacity="0"/>
</linearGradient>
</defs>
</svg>
