<svg width="41" height="46" viewBox="0 0 41 46" fill="none" xmlns="http://www.w3.org/2000/svg">
<path d="M20.4999 23.035C26.0324 23.035 30.5174 18.55 30.5174 13.0175C30.5174 7.48498 26.0324 3 20.4999 3C14.9674 3 10.4824 7.48498 10.4824 13.0175C10.4824 18.55 14.9674 23.035 20.4999 23.035Z" stroke="#FE8304" stroke-width="5.15932"/>
<path d="M30.5175 27.042H31.2221C34.2532 27.042 36.8101 29.2991 37.1861 32.307L37.9685 38.5659C38.2674 40.9575 36.4025 43.07 33.9923 43.07H7.00757C4.59738 43.07 2.73259 40.9575 3.03153 38.5659L3.8139 32.307C4.18987 29.2991 6.74675 27.042 9.77798 27.042H10.4825" stroke="#FE8304" stroke-width="5.15932" stroke-linecap="round" stroke-linejoin="round"/>
</svg>
