<svg width="289" height="58" viewBox="0 0 289 58" fill="none" xmlns="http://www.w3.org/2000/svg">
<ellipse cx="21.6619" cy="12.34" rx="12.3396" ry="12.34" fill="#FE8304"/>
<path d="M21.8809 9.99747V18.5256H23.5837V8.40536H19.6658V9.99747H21.8809Z" fill="white"/>
<path d="M4.66497 32.2807H3.33984V39.8484H4.66497V32.2807ZM7.41915 39.8484V37.0946C7.41915 36.2664 7.89537 35.7281 8.67181 35.7281C9.32402 35.7281 9.74848 36.1422 9.74848 37.0014V39.8484H11.0115V36.7012C11.0115 35.3761 10.3489 34.5789 9.06521 34.5789C8.37159 34.5789 7.75043 34.8792 7.4295 35.3968L7.32598 34.7342H6.15614V39.8484H7.41915ZM11.7451 34.7342V35.7902H12.4802V39.8484H13.7328V35.7902H14.9544V34.7342H13.7328V34.1131C13.7328 33.6058 13.8881 33.2745 14.53 33.2745H14.9751V32.1979C14.7577 32.1564 14.5196 32.1461 14.3229 32.1461C13.2152 32.1461 12.4802 32.7258 12.4802 34.1131V34.7342H11.7451ZM15.3087 37.281C15.3087 38.8752 16.4578 39.9726 18.0418 39.9726C19.6257 39.9726 20.7748 38.8752 20.7748 37.281C20.7748 35.6867 19.6257 34.5893 18.0418 34.5893C16.4578 34.5893 15.3087 35.6867 15.3087 37.281ZM16.5717 37.281C16.5717 36.3492 17.1721 35.7177 18.0418 35.7177C18.9114 35.7177 19.5118 36.3492 19.5118 37.281C19.5118 38.2127 18.9114 38.8442 18.0418 38.8442C17.1721 38.8442 16.5717 38.2127 16.5717 37.281ZM24.9852 34.7135C24.7782 34.6618 24.6022 34.6411 24.4262 34.6411C23.7429 34.6411 23.2564 34.9827 23.039 35.49L22.9665 34.7446H21.776V39.8484H23.039V37.3638C23.039 36.3699 23.6084 35.8834 24.5194 35.8834H24.9852V34.7135ZM27.1032 39.8484V36.9497C27.1032 36.1215 27.5897 35.7281 28.1902 35.7281C28.7906 35.7281 29.1737 36.1111 29.1737 36.8254V39.8484H30.4367V36.9497C30.4367 36.1111 30.9025 35.7177 31.5133 35.7177C32.1138 35.7177 32.5072 36.1008 32.5072 36.8358V39.8484H33.7598V36.5045C33.7598 35.3243 33.0766 34.5789 31.8343 34.5789C31.0578 34.5789 30.4574 34.962 30.1986 35.5521C29.9294 34.962 29.3911 34.5789 28.6146 34.5789C27.8796 34.5789 27.362 34.9102 27.1032 35.3347L26.9996 34.7342H25.8401V39.8484H27.1032ZM36.5216 39.983C37.3187 39.983 38.0123 39.6206 38.2297 39.0927L38.3229 39.8484H39.4306V36.7426C39.4306 35.3243 38.5817 34.5789 37.2048 34.5789C35.8176 34.5789 34.9066 35.3036 34.9066 36.4113H35.9832C35.9832 35.873 36.3973 35.5624 37.1427 35.5624C37.7846 35.5624 38.1987 35.842 38.1987 36.5356V36.6494L36.6665 36.7633C35.4552 36.8565 34.772 37.4466 34.772 38.3887C34.772 39.3515 35.4345 39.983 36.5216 39.983ZM36.9357 39.0305C36.3663 39.0305 36.0557 38.8028 36.0557 38.3369C36.0557 37.9228 36.3559 37.664 37.1427 37.5915L38.209 37.5087V37.7779C38.209 38.5647 37.7121 39.0305 36.9357 39.0305ZM40.278 38.2955C40.278 39.2997 41.0855 39.983 42.3589 39.983C43.6219 39.983 44.5018 39.3411 44.5018 38.3059C44.5018 37.5191 44.067 37.1257 43.2078 36.929L42.2864 36.7116C41.8516 36.608 41.6238 36.4217 41.6238 36.1318C41.6238 35.7488 41.9137 35.521 42.4106 35.521C42.8972 35.521 43.1871 35.8005 43.1974 36.2353H44.3983C44.388 35.2415 43.6115 34.5789 42.4624 34.5789C41.2822 34.5789 40.4333 35.1794 40.4333 36.1836C40.4333 37.0014 40.8784 37.4362 41.7998 37.6433L42.7212 37.8607C43.1767 37.9642 43.3113 38.1506 43.3113 38.4094C43.3113 38.7821 42.9904 39.0202 42.4003 39.0202C41.8205 39.0202 41.4892 38.7407 41.4789 38.2955H40.278ZM46.095 33.7093C46.5091 33.7093 46.8507 33.3677 46.8507 32.9432C46.8507 32.5188 46.5091 32.1875 46.095 32.1875C45.6602 32.1875 45.3186 32.5188 45.3186 32.9432C45.3186 33.3677 45.6602 33.7093 46.095 33.7093ZM45.4635 39.8484H46.7265V34.7342H45.4635V39.8484ZM11.4777 51.2395C12.9891 51.2395 13.983 50.2146 13.983 48.7549C13.983 47.2745 12.9995 46.2807 11.4777 46.2807H8.48579V53.8484H9.81091V51.2395H11.4777ZM11.2189 47.4609C12.0988 47.4609 12.5958 47.9164 12.5958 48.7446C12.5958 49.5728 12.1092 50.0594 11.1982 50.0594H9.81091V47.4609H11.2189ZM16.9465 53.983C18.282 53.983 19.2137 53.3101 19.4311 52.192H18.2613C18.1163 52.6786 17.6608 52.9477 16.9672 52.9477C16.1286 52.9477 15.6524 52.4922 15.5592 51.5915L19.4104 51.5812V51.1981C19.4104 49.6038 18.4373 48.5789 16.9051 48.5789C15.404 48.5789 14.3584 49.6867 14.3584 51.2913C14.3584 52.8752 15.4247 53.983 16.9465 53.983ZM16.9154 49.6142C17.6712 49.6142 18.1577 50.0801 18.1577 50.784H15.5903C15.7145 50.0179 16.1701 49.6142 16.9154 49.6142ZM21.6842 53.8484V50.9497C21.6842 50.1215 22.1708 49.7281 22.7713 49.7281C23.3717 49.7281 23.7548 50.1111 23.7548 50.8254V53.8484H25.0178V50.9497C25.0178 50.1111 25.4836 49.7177 26.0944 49.7177C26.6949 49.7177 27.0883 50.1008 27.0883 50.8358V53.8484H28.3409V50.5045C28.3409 49.3243 27.6577 48.5789 26.4154 48.5789C25.6389 48.5789 25.0385 48.962 24.7797 49.5521C24.5105 48.962 23.9722 48.5789 23.1957 48.5789C22.4607 48.5789 21.9431 48.9102 21.6842 49.3347L21.5807 48.7342H20.4212V53.8484H21.6842ZM30.2123 47.7093C30.6264 47.7093 30.9681 47.3677 30.9681 46.9432C30.9681 46.5188 30.6264 46.1875 30.2123 46.1875C29.7775 46.1875 29.4359 46.5188 29.4359 46.9432C29.4359 47.3677 29.7775 47.7093 30.2123 47.7093ZM29.5808 53.8484H30.8438V48.7342H29.5808V53.8484ZM33.4221 53.8484V46.1461H32.1694V53.8484H33.4221ZM35.3785 47.7093C35.7926 47.7093 36.1342 47.3677 36.1342 46.9432C36.1342 46.5188 35.7926 46.1875 35.3785 46.1875C34.9437 46.1875 34.602 46.5188 34.602 46.9432C34.602 47.3677 34.9437 47.7093 35.3785 47.7093ZM34.747 53.8484H36.01V48.7342H34.747V53.8484ZM38.5883 53.8484V52.4715L39.3336 51.6951L40.6691 53.8484H42.1185L40.2136 50.7633L42.1599 48.7342H40.576L38.5883 50.8772V46.1461H37.3356V53.8484H38.5883Z" fill="#FE8304"/>
<path d="M80.2487 32.6078H78.9236V40.1755H80.2487V32.6078ZM83.0029 40.1755V37.4218C83.0029 36.5936 83.4791 36.0552 84.2556 36.0552C84.9078 36.0552 85.3322 36.4693 85.3322 37.3286V40.1755H86.5953V37.0284C86.5953 35.7032 85.9327 34.9061 84.649 34.9061C83.9554 34.9061 83.3342 35.2063 83.0133 35.7239L82.9097 35.0614H81.7399V40.1755H83.0029ZM87.3289 35.0614V36.1173H88.0639V40.1755H89.3166V36.1173H90.5382V35.0614H89.3166V34.4402C89.3166 33.9329 89.4719 33.6017 90.1138 33.6017H90.5589V32.525C90.3415 32.4836 90.1034 32.4732 89.9067 32.4732C88.799 32.4732 88.0639 33.053 88.0639 34.4402V35.0614H87.3289ZM90.8925 37.6081C90.8925 39.2024 92.0416 40.2998 93.6255 40.2998C95.2095 40.2998 96.3586 39.2024 96.3586 37.6081C96.3586 36.0138 95.2095 34.9164 93.6255 34.9164C92.0416 34.9164 90.8925 36.0138 90.8925 37.6081ZM92.1555 37.6081C92.1555 36.6764 92.7559 36.0449 93.6255 36.0449C94.4951 36.0449 95.0956 36.6764 95.0956 37.6081C95.0956 38.5398 94.4951 39.1713 93.6255 39.1713C92.7559 39.1713 92.1555 38.5398 92.1555 37.6081ZM100.569 35.0407C100.362 34.9889 100.186 34.9682 100.01 34.9682C99.3267 34.9682 98.8401 35.3098 98.6227 35.8171L98.5503 35.0717H97.3597V40.1755H98.6227V37.6909C98.6227 36.6971 99.1921 36.2105 100.103 36.2105H100.569V35.0407ZM102.687 40.1755V37.2768C102.687 36.4486 103.173 36.0552 103.774 36.0552C104.374 36.0552 104.757 36.4383 104.757 37.1526V40.1755H106.02V37.2768C106.02 36.4383 106.486 36.0449 107.097 36.0449C107.698 36.0449 108.091 36.4279 108.091 37.1629V40.1755H109.344V36.8317C109.344 35.6515 108.66 34.9061 107.418 34.9061C106.642 34.9061 106.041 35.2891 105.782 35.8792C105.513 35.2891 104.975 34.9061 104.198 34.9061C103.463 34.9061 102.946 35.2374 102.687 35.6618L102.583 35.0614H101.424V40.1755H102.687ZM112.105 40.3101C112.902 40.3101 113.596 39.9478 113.813 39.4198L113.907 40.1755H115.014V37.0698C115.014 35.6515 114.165 34.9061 112.789 34.9061C111.401 34.9061 110.49 35.6308 110.49 36.7385H111.567C111.567 36.2002 111.981 35.8896 112.726 35.8896C113.368 35.8896 113.782 36.1691 113.782 36.8627V36.9766L112.25 37.0905C111.039 37.1836 110.356 37.7737 110.356 38.7158C110.356 39.6786 111.018 40.3101 112.105 40.3101ZM112.519 39.3577C111.95 39.3577 111.639 39.1299 111.639 38.6641C111.639 38.25 111.94 37.9911 112.726 37.9187L113.793 37.8359V38.105C113.793 38.8918 113.296 39.3577 112.519 39.3577ZM115.862 38.6227C115.862 39.6269 116.669 40.3101 117.943 40.3101C119.206 40.3101 120.086 39.6683 120.086 38.633C120.086 37.8462 119.651 37.4528 118.792 37.2561L117.87 37.0387C117.435 36.9352 117.208 36.7488 117.208 36.459C117.208 36.0759 117.497 35.8482 117.994 35.8482C118.481 35.8482 118.771 36.1277 118.781 36.5625H119.982C119.972 35.5687 119.195 34.9061 118.046 34.9061C116.866 34.9061 116.017 35.5065 116.017 36.5107C116.017 37.3286 116.462 37.7634 117.384 37.9704L118.305 38.1878C118.76 38.2914 118.895 38.4777 118.895 38.7365C118.895 39.1092 118.574 39.3473 117.984 39.3473C117.404 39.3473 117.073 39.0678 117.063 38.6227H115.862ZM121.679 34.0365C122.093 34.0365 122.435 33.6948 122.435 33.2704C122.435 32.8459 122.093 32.5146 121.679 32.5146C121.244 32.5146 120.902 32.8459 120.902 33.2704C120.902 33.6948 121.244 34.0365 121.679 34.0365ZM121.047 40.1755H122.31V35.0614H121.047V40.1755ZM86.4442 51.4114C86.4442 53.192 87.6037 54.2998 89.4361 54.2998C91.2788 54.2998 92.4383 53.1817 92.4383 51.4114V46.6078H91.1132V51.3286C91.1132 52.4053 90.5127 53.0161 89.4361 53.0161C88.3594 53.0161 87.7693 52.4156 87.7693 51.3286V46.6078H86.4442V51.4114ZM93.4178 52.6227C93.4178 53.6269 94.2253 54.3101 95.4986 54.3101C96.7616 54.3101 97.6416 53.6683 97.6416 52.633C97.6416 51.8462 97.2068 51.4528 96.3475 51.2561L95.4261 51.0387C94.9913 50.9352 94.7636 50.7488 94.7636 50.459C94.7636 50.0759 95.0535 49.8482 95.5504 49.8482C96.0369 49.8482 96.3268 50.1277 96.3372 50.5625H97.5381C97.5277 49.5687 96.7513 48.9061 95.6021 48.9061C94.422 48.9061 93.573 49.5065 93.573 50.5107C93.573 51.3286 94.0182 51.7634 94.9396 51.9704L95.861 52.1878C96.3165 52.2914 96.4511 52.4777 96.4511 52.7365C96.4511 53.1092 96.1301 53.3473 95.54 53.3473C94.9603 53.3473 94.629 53.0678 94.6186 52.6227H93.4178ZM100.125 54.3101C100.922 54.3101 101.616 53.9478 101.833 53.4198L101.926 54.1755H103.034V51.0698C103.034 49.6515 102.185 48.9061 100.808 48.9061C99.4211 48.9061 98.5101 49.6308 98.5101 50.7385H99.5867C99.5867 50.2002 100.001 49.8896 100.746 49.8896C101.388 49.8896 101.802 50.1691 101.802 50.8627V50.9766L100.27 51.0905C99.0588 51.1836 98.3755 51.7737 98.3755 52.7158C98.3755 53.6786 99.0381 54.3101 100.125 54.3101ZM100.539 53.3577C99.9698 53.3577 99.6592 53.1299 99.6592 52.6641C99.6592 52.25 99.9594 51.9911 100.746 51.9187L101.813 51.8359V52.105C101.813 52.8918 101.316 53.3577 100.539 53.3577ZM105.538 54.1755V51.3803C105.538 50.6143 106.004 50.0552 106.801 50.0552C107.443 50.0552 107.867 50.4693 107.867 51.3286V54.1755H109.13V51.0284C109.13 49.7032 108.468 48.9061 107.205 48.9061C106.47 48.9061 105.869 49.227 105.548 49.7239V46.4732H104.275V54.1755H105.538ZM111.893 54.3101C112.69 54.3101 113.384 53.9478 113.601 53.4198L113.694 54.1755H114.802V51.0698C114.802 49.6515 113.953 48.9061 112.576 48.9061C111.189 48.9061 110.278 49.6308 110.278 50.7385H111.355C111.355 50.2002 111.769 49.8896 112.514 49.8896C113.156 49.8896 113.57 50.1691 113.57 50.8627V50.9766L112.038 51.0905C110.827 51.1836 110.143 51.7737 110.143 52.7158C110.143 53.6786 110.806 54.3101 111.893 54.3101ZM112.307 53.3577C111.738 53.3577 111.427 53.1299 111.427 52.6641C111.427 52.25 111.727 51.9911 112.514 51.9187L113.58 51.8359V52.105C113.58 52.8918 113.084 53.3577 112.307 53.3577Z" fill="#FE8304"/>
<path d="M162.747 40.1755H164.114L166.93 32.6078H165.553L163.917 36.9662C163.772 37.3493 163.617 37.8152 163.43 38.4777C163.265 37.8669 163.12 37.4218 162.954 36.9662L161.298 32.6078H159.89L162.747 40.1755ZM169.106 40.3101C170.441 40.3101 171.373 39.6372 171.59 38.5191H170.421C170.276 39.0057 169.82 39.2749 169.127 39.2749C168.288 39.2749 167.812 38.8194 167.719 37.9187L171.57 37.9083V37.5253C171.57 35.931 170.597 34.9061 169.064 34.9061C167.563 34.9061 166.518 36.0138 166.518 37.6185C166.518 39.2024 167.584 40.3101 169.106 40.3101ZM169.075 35.9413C169.831 35.9413 170.317 36.4072 170.317 37.1112H167.75C167.874 36.3451 168.329 35.9413 169.075 35.9413ZM175.79 35.0407C175.583 34.9889 175.407 34.9682 175.231 34.9682C174.548 34.9682 174.061 35.3098 173.844 35.8171L173.771 35.0717H172.581V40.1755H173.844V37.6909C173.844 36.6971 174.413 36.2105 175.324 36.2105H175.79V35.0407ZM177.276 34.0365C177.69 34.0365 178.032 33.6948 178.032 33.2704C178.032 32.8459 177.69 32.5146 177.276 32.5146C176.841 32.5146 176.5 32.8459 176.5 33.2704C176.5 33.6948 176.841 34.0365 177.276 34.0365ZM176.645 40.1755H177.908V35.0614H176.645V40.1755ZM182.784 40.1755H184.047V35.0614H180.693V34.4402C180.693 33.9329 180.838 33.6017 181.407 33.6017H181.853V32.525C181.635 32.4836 181.397 32.4732 181.2 32.4732C180.165 32.4732 179.44 33.053 179.44 34.4402V35.0614H178.705V36.1173H179.44V40.1755H180.693V36.1173H182.784V40.1755ZM183.416 34.0158C183.83 34.0158 184.161 33.6845 184.161 33.26C184.161 32.8459 183.83 32.5146 183.416 32.5146C182.991 32.5146 182.66 32.8459 182.66 33.26C182.66 33.6845 182.991 34.0158 183.416 34.0158ZM186.623 40.1755V38.7986L187.368 38.0222L188.704 40.1755H190.153L188.248 37.0905L190.194 35.0614H188.61L186.623 37.2044V32.4732H185.37V40.1755H186.623ZM192.28 40.3101C193.077 40.3101 193.771 39.9478 193.988 39.4198L194.081 40.1755H195.189V37.0698C195.189 35.6515 194.34 34.9061 192.963 34.9061C191.576 34.9061 190.665 35.6308 190.665 36.7385H191.742C191.742 36.2002 192.156 35.8896 192.901 35.8896C193.543 35.8896 193.957 36.1691 193.957 36.8627V36.9766L192.425 37.0905C191.214 37.1836 190.53 37.7737 190.53 38.7158C190.53 39.6786 191.193 40.3101 192.28 40.3101ZM192.694 39.3577C192.125 39.3577 191.814 39.1299 191.814 38.6641C191.814 38.25 192.114 37.9911 192.901 37.9187L193.967 37.8359V38.105C193.967 38.8918 193.471 39.3577 192.694 39.3577ZM196.036 38.6227C196.036 39.6269 196.844 40.3101 198.117 40.3101C199.38 40.3101 200.26 39.6683 200.26 38.633C200.26 37.8462 199.825 37.4528 198.966 37.2561L198.045 37.0387C197.61 36.9352 197.382 36.7488 197.382 36.459C197.382 36.0759 197.672 35.8482 198.169 35.8482C198.656 35.8482 198.946 36.1277 198.956 36.5625H200.157C200.146 35.5687 199.37 34.9061 198.221 34.9061C197.041 34.9061 196.192 35.5065 196.192 36.5107C196.192 37.3286 196.637 37.7634 197.558 37.9704L198.48 38.1878C198.935 38.2914 199.07 38.4777 199.07 38.7365C199.07 39.1092 198.749 39.3473 198.159 39.3473C197.579 39.3473 197.248 39.0678 197.237 38.6227H196.036ZM201.853 34.0365C202.268 34.0365 202.609 33.6948 202.609 33.2704C202.609 32.8459 202.268 32.5146 201.853 32.5146C201.419 32.5146 201.077 32.8459 201.077 33.2704C201.077 33.6948 201.419 34.0365 201.853 34.0365ZM201.222 40.1755H202.485V35.0614H201.222V40.1755Z" fill="#FE8304"/>
<path d="M248.941 40.375L249.552 38.6254H252.378L252.989 40.375H254.386L251.653 32.8073H250.297L247.564 40.375H248.941ZM250.804 35.0641C250.877 34.8571 250.939 34.6293 250.97 34.4844C250.991 34.6397 251.063 34.8674 251.125 35.0641L251.995 37.5073H249.945L250.804 35.0641ZM256.422 40.375V38.9981L257.168 38.2217L258.503 40.375H259.953L258.048 37.2899L259.994 35.2608H258.41L256.422 37.4038V32.6727H255.17V40.375H256.422ZM264.188 35.2608V37.9421C264.188 38.9153 263.805 39.3812 263.008 39.3812C262.304 39.3812 261.921 38.9878 261.921 38.0146V35.2608H260.658V38.4598C260.658 39.7124 261.351 40.5096 262.531 40.5096C263.215 40.5096 263.877 40.1783 264.188 39.6917L264.281 40.375H265.451V35.2608H264.188ZM268.018 40.375V37.6212C268.018 36.793 268.494 36.2547 269.271 36.2547C269.923 36.2547 270.348 36.6688 270.348 37.528V40.375H271.611V37.2278C271.611 35.9027 270.948 35.1056 269.664 35.1056C268.971 35.1056 268.35 35.4058 268.029 35.9234L267.925 35.2608H266.755V40.375H268.018ZM238.335 48.0289H240.551V54.375H241.876V48.0289H244.091V46.8073H238.335V48.0289ZM246.336 54.5096C247.672 54.5096 248.604 53.8367 248.821 52.7186H247.651C247.506 53.2052 247.051 53.4743 246.357 53.4743C245.518 53.4743 245.042 53.0188 244.949 52.1181L248.8 52.1078V51.7247C248.8 50.1305 247.827 49.1056 246.295 49.1056C244.794 49.1056 243.748 50.2133 243.748 51.8179C243.748 53.4019 244.814 54.5096 246.336 54.5096ZM246.305 50.1408C247.061 50.1408 247.548 50.6067 247.548 51.3106H244.98C245.104 50.5446 245.56 50.1408 246.305 50.1408ZM253.02 49.2401C252.813 49.1884 252.637 49.1677 252.461 49.1677C251.778 49.1677 251.291 49.5093 251.074 50.0166L251.002 49.2712H249.811V54.375H251.074V51.8904C251.074 50.8965 251.643 50.41 252.554 50.41H253.02V49.2401ZM255.805 54.5096C256.581 54.5096 257.244 54.1679 257.555 53.5779L257.637 54.375H258.797V46.6727H257.544V49.913C257.223 49.4058 256.592 49.1056 255.877 49.1056C254.335 49.1056 253.403 50.2443 253.403 51.8386C253.403 53.4226 254.325 54.5096 255.805 54.5096ZM256.084 53.3501C255.204 53.3501 254.666 52.7082 254.666 51.7972C254.666 50.8862 255.204 50.234 256.084 50.234C256.964 50.234 257.534 50.8758 257.534 51.7972C257.534 52.7186 256.964 53.3501 256.084 53.3501ZM261.635 54.5096C262.432 54.5096 263.126 54.1472 263.343 53.6193L263.436 54.375H264.544V51.2692C264.544 49.8509 263.695 49.1056 262.318 49.1056C260.931 49.1056 260.02 49.8302 260.02 50.938H261.097C261.097 50.3996 261.511 50.089 262.256 50.089C262.898 50.089 263.312 50.3686 263.312 51.0622V51.1761L261.78 51.2899C260.569 51.3831 259.885 51.9732 259.885 52.9153C259.885 53.8781 260.548 54.5096 261.635 54.5096ZM262.049 53.5571C261.48 53.5571 261.169 53.3294 261.169 52.8635C261.169 52.4494 261.469 52.1906 262.256 52.1181L263.322 52.0353V52.3045C263.322 53.0913 262.825 53.5571 262.049 53.5571ZM265.257 49.2608V50.3168H265.992V54.375H267.245V50.3168H269.398V54.375H270.661V50.3168H271.655V49.2608H270.661V47.6665H269.398V49.2608H267.245V48.6397C267.245 48.1324 267.39 47.8011 267.959 47.8011H268.404V46.7245C268.187 46.6831 267.949 46.6727 267.752 46.6727C266.717 46.6727 265.992 47.2524 265.992 48.6397V49.2608H265.257ZM273.929 54.5096C274.726 54.5096 275.419 54.1472 275.637 53.6193L275.73 54.375H276.838V51.2692C276.838 49.8509 275.989 49.1056 274.612 49.1056C273.225 49.1056 272.314 49.8302 272.314 50.938H273.39C273.39 50.3996 273.804 50.089 274.55 50.089C275.192 50.089 275.606 50.3686 275.606 51.0622V51.1761L274.073 51.2899C272.862 51.3831 272.179 51.9732 272.179 52.9153C272.179 53.8781 272.842 54.5096 273.929 54.5096ZM274.343 53.5571C273.773 53.5571 273.463 53.3294 273.463 52.8635C273.463 52.4494 273.763 52.1906 274.55 52.1181L275.616 52.0353V52.3045C275.616 53.0913 275.119 53.5571 274.343 53.5571ZM281.288 49.2401C281.081 49.1884 280.905 49.1677 280.729 49.1677C280.045 49.1677 279.559 49.5093 279.341 50.0166L279.269 49.2712H278.078V54.375H279.341V51.8904C279.341 50.8965 279.911 50.41 280.822 50.41H281.288V49.2401Z" fill="#F5B879"/>
<rect x="32.9712" y="10.3528" width="56.4685" height="5.64685" fill="#FE8304"/>
<rect x="112.759" y="10.3528" width="56.4685" height="5.64685" fill="#FE860A"/>
<rect x="112.759" y="10.3528" width="56.4685" height="5.64685" fill="#FE8304"/>
<rect x="192.57" y="10.8796" width="56.4685" height="5.64685" fill="#FFF0E0"/>
<ellipse cx="260.396" cy="13.4279" rx="12.3396" ry="12.34" fill="#FFF0E0"/>
<path d="M263.833 16.9199V15.3693H262.6V8.72397H260.372L255.789 15.3693V16.9199H260.925V18.8442H262.6V16.9199H263.833ZM257.672 15.3693L260.925 10.6345V15.3693H257.672Z" fill="#FE8304"/>
<ellipse cx="100.629" cy="13.2809" rx="12.3396" ry="12.34" fill="#FE8304"/>
<ellipse cx="180.479" cy="13.2809" rx="12.3396" ry="12.34" fill="#FE8304"/>
</svg>
