<svg width="38" height="38" viewBox="0 0 38 38" fill="none" xmlns="http://www.w3.org/2000/svg">
<circle cx="18.5263" cy="18.5263" r="17.7853" fill="#FE8304" stroke="#FE8304" stroke-width="1.48211"/>
<path d="M19.0109 22.9092C20.6116 22.9092 21.9092 21.6116 21.9092 20.0109C21.9092 18.4102 20.6116 17.1125 19.0109 17.1125C17.4102 17.1125 16.1125 18.4102 16.1125 20.0109C16.1125 21.6116 17.4102 22.9092 19.0109 22.9092Z" fill="white"/>
<path d="M16.3401 11L14.6826 12.8115H11.8115C10.8152 12.8115 10 13.6266 10 14.6229V25.4917C10 26.488 10.8152 27.3032 11.8115 27.3032H26.3032C27.2995 27.3032 28.1146 26.488 28.1146 25.4917V14.6229C28.1146 13.6266 27.2995 12.8115 26.3032 12.8115H23.432L21.7745 11H16.3401ZM19.0573 24.586C16.5575 24.586 14.5287 22.5571 14.5287 20.0573C14.5287 17.5575 16.5575 15.5287 19.0573 15.5287C21.5571 15.5287 23.586 17.5575 23.586 20.0573C23.586 22.5571 21.5571 24.586 19.0573 24.586Z" fill="white"/>
</svg>
