<svg width="52" height="31" viewBox="0 0 52 31" fill="none" xmlns="http://www.w3.org/2000/svg">
<path d="M43.3333 13.2857C42.9 13.2857 42.4667 13.2857 42.25 13.5071L37.7 8.85714H43.3333V2.21429L35.3167 6.42143L29.0333 0H19.5V4.42857H27.3L31.6333 8.85714H23.8333L15.1667 13.2857L10.8333 8.85714H0V13.2857H8.66667C3.9 13.2857 0 17.2714 0 22.1429C0 27.0143 3.9 31 8.66667 31C13.4333 31 17.3333 27.0143 17.3333 22.1429L21.6667 26.5714H28.1667L35.75 13.0643L37.9167 15.2786C35.9667 16.8286 34.6667 19.4857 34.6667 22.1429C34.6667 27.0143 38.5667 31 43.3333 31C48.1 31 52 27.0143 52 22.1429C52 17.2714 48.1 13.2857 43.3333 13.2857ZM8.66667 26.5714C6.28333 26.5714 4.33333 24.5786 4.33333 22.1429C4.33333 19.7071 6.28333 17.7143 8.66667 17.7143C11.05 17.7143 13 19.7071 13 22.1429C13 24.5786 11.05 26.5714 8.66667 26.5714ZM43.3333 26.5714C40.95 26.5714 39 24.5786 39 22.1429C39 19.7071 40.95 17.7143 43.3333 17.7143C45.7167 17.7143 47.6667 19.7071 47.6667 22.1429C47.6667 24.5786 45.7167 26.5714 43.3333 26.5714Z" fill="#FE8304"/>
</svg>
