<svg width="340" height="105" viewBox="0 0 340 105" fill="none" xmlns="http://www.w3.org/2000/svg">
<rect width="339" height="105" fill="#FCBF86"/>
<path fill-rule="evenodd" clip-rule="evenodd" d="M1 66.381L5.33333 68.4762C10.5333 70.5714 20.0667 74.7619 29.6 73.7143C38.2667 72.6667 47.8 66.381 57.3333 67.4286C66.8667 68.4762 76.4 76.8571 85.9333 78.9524C94.6 81.0476 104.133 76.8571 113.667 72.6667C123.2 68.4762 132.733 64.2857 142.267 60.619C150.933 56.4286 160.467 52.2381 170 50.1429C179.533 48.0476 189.067 48.0476 198.6 50.1429C207.267 52.2381 216.8 56.4286 226.333 57.4762C235.867 58.5238 245.4 56.4286 254.933 57.4762C263.6 58.5238 273.133 62.1905 282.667 66.381C292.2 70.5714 301.733 74.7619 311.267 69.5238C319.933 64.2857 329.467 50.1429 334.667 42.8095L339 36V91H334.667C329.467 91 319.933 91 311.267 91C301.733 91 292.2 91 282.667 91C273.133 91 263.6 91 254.933 91C245.4 91 235.867 91 226.333 91C216.8 91 207.267 91 198.6 91C189.067 91 179.533 91 170 91C160.467 91 150.933 91 142.267 91C132.733 91 123.2 91 113.667 91C104.133 91 94.6 91 85.9333 91C76.4 91 66.8667 91 57.3333 91C47.8 91 38.2667 91 29.6 91C20.0667 91 10.5333 91 5.33333 91H1V66.381Z" fill="url(#paint0_linear_2020_2506)"/>
<path fill-rule="evenodd" clip-rule="evenodd" d="M0 36.5685L7.08333 39.4378C14.1667 42.3071 28.3333 48.0457 42.5 53.7843C56.6667 59.5228 70.8333 65.2614 85 56.6535C99.1667 48.0457 113.333 25.0913 127.5 20.7874C141.667 16.4835 155.833 30.8299 170 39.4378C184.167 48.0457 198.333 50.915 212.5 49.4803C226.667 48.0457 240.833 42.3071 255 38.0031C269.167 33.6992 283.333 30.8299 297.5 35.1339C311.667 39.4378 325.833 50.915 332.917 56.6535L340 62.3921V71H332.917C325.833 71 311.667 71 297.5 71C283.333 71 269.167 71 255 71C240.833 71 226.667 71 212.5 71C198.333 71 184.167 71 170 71C155.833 71 141.667 71 127.5 71C113.333 71 99.1667 71 85 71C70.8333 71 56.6667 71 42.5 71C28.3333 71 14.1667 71 7.08333 71H0V36.5685Z" fill="url(#paint1_linear_2020_2506)"/>
<defs>
<linearGradient id="paint0_linear_2020_2506" x1="170" y1="36" x2="170" y2="91" gradientUnits="userSpaceOnUse">
<stop stop-color="#FE8B14"/>
<stop offset="1" stop-color="#FE8B14" stop-opacity="0"/>
</linearGradient>
<linearGradient id="paint1_linear_2020_2506" x1="170" y1="20" x2="170" y2="71" gradientUnits="userSpaceOnUse">
<stop stop-color="#F8B774"/>
<stop offset="1" stop-color="#DF872D" stop-opacity="0"/>
</linearGradient>
</defs>
</svg>
