<svg width="46" height="46" viewBox="0 0 46 46" fill="none" xmlns="http://www.w3.org/2000/svg">
<circle cx="23" cy="23" r="23" fill="#FE8304"/>
<path d="M14.5455 14H35V27.6364H14.5455V14ZM24.7727 17.4091C25.6769 17.4091 26.544 17.7683 27.1833 18.4076C27.8226 19.0469 28.1818 19.914 28.1818 20.8182C28.1818 21.7223 27.8226 22.5894 27.1833 23.2288C26.544 23.8681 25.6769 24.2273 24.7727 24.2273C23.8686 24.2273 23.0015 23.8681 22.3621 23.2288C21.7228 22.5894 21.3636 21.7223 21.3636 20.8182C21.3636 19.914 21.7228 19.0469 22.3621 18.4076C23.0015 17.7683 23.8686 17.4091 24.7727 17.4091ZM19.0909 16.2727C19.0909 16.8755 18.8515 17.4536 18.4252 17.8798C17.999 18.306 17.4209 18.5455 16.8182 18.5455V23.0909C17.4209 23.0909 17.999 23.3304 18.4252 23.7566C18.8515 24.1828 19.0909 24.7609 19.0909 25.3636H30.4545C30.4545 24.7609 30.694 24.1828 31.1202 23.7566C31.5464 23.3304 32.1245 23.0909 32.7273 23.0909V18.5455C32.1245 18.5455 31.5464 18.306 31.1202 17.8798C30.694 17.4536 30.4545 16.8755 30.4545 16.2727H19.0909ZM10 18.5455H12.2727V29.9091H30.4545V32.1818H10V18.5455Z" fill="white"/>
</svg>
