<svg width="19" height="19" viewBox="0 0 19 19" fill="none" xmlns="http://www.w3.org/2000/svg">
<mask id="mask0_241_292" style="mask-type:luminance" maskUnits="userSpaceOnUse" x="0" y="0" width="19" height="19">
<path d="M18.8853 0H0V19H18.8853V0Z" fill="white"/>
</mask>
<g mask="url(#mask0_241_292)">
<path d="M18.8854 9.71797C18.8854 9.07218 18.8323 8.42291 18.7189 7.7876H9.63208V11.4459H14.8357C14.6197 12.6257 13.926 13.6695 12.91 14.3327V16.7063H16.0145C17.8376 15.0518 18.8854 12.6083 18.8854 9.71797Z" fill="#4285F4"/>
<path d="M9.63208 18.9999C12.2304 18.9999 14.4216 18.1586 16.018 16.7064L12.9136 14.3328C12.0498 14.9123 10.9348 15.2404 9.63561 15.2404C7.1223 15.2404 4.99129 13.5683 4.22667 11.3203H1.02307V13.7672C2.65851 16.9753 5.98954 18.9999 9.63208 18.9999Z" fill="#34A853"/>
<path d="M4.22314 11.3202C3.81959 10.1403 3.81959 8.8627 4.22314 7.68284V5.23584H1.02309C-0.343308 7.92021 -0.343308 11.0828 1.02309 13.7671L4.22314 11.3202Z" fill="#FBBC04"/>
<path d="M9.63208 3.75941C11.0056 3.73847 12.333 4.24811 13.3277 5.18364L16.0782 2.47133C14.3366 0.858626 12.025 -0.028018 9.63208 -9.22303e-05C5.98953 -9.22303e-05 2.65851 2.02453 1.02307 5.23599L4.22313 7.68299C4.9842 5.43147 7.11876 3.75941 9.63208 3.75941Z" fill="#EA4335"/>
</g>
</svg>
