<svg width="26" height="26" viewBox="0 0 26 26" fill="none" xmlns="http://www.w3.org/2000/svg">
<path d="M20.1601 25.9859H22.1217C23.1143 25.9859 23.9297 25.2296 24.0479 24.2606L25.9977 4.78595H20.0892V0H17.7612V4.78595H11.8881L12.2426 7.55116C14.2633 8.10656 16.154 9.11102 17.2885 10.2218C18.9902 11.8999 20.1601 13.637 20.1601 16.4731V25.9859ZM0 24.8042V23.6343H17.7612V24.8042C17.7612 25.4541 17.2294 25.9859 16.5676 25.9859H1.19353C0.531772 25.9859 0 25.4541 0 24.8042ZM17.7612 16.5322C17.7612 7.07847 0 7.07847 0 16.5322H17.7612ZM0.0236343 18.9074H17.7494V21.2709H0.0236343V18.9074Z" fill="#FFD1A1"/>
</svg>
