<svg width="17" height="19" viewBox="0 0 17 19" fill="none" xmlns="http://www.w3.org/2000/svg">
<path d="M8.49975 9.67613C10.8708 9.67613 12.793 7.73392 12.793 5.33807C12.793 2.94222 10.8708 1 8.49975 1C6.12868 1 4.20654 2.94222 4.20654 5.33807C4.20654 7.73392 6.12868 9.67613 8.49975 9.67613Z" stroke="#D7832C" stroke-width="2"/>
<path d="M12.7932 10.2434H13.0952C14.3942 10.2434 15.49 11.2209 15.6512 12.5234L15.9865 15.2338C16.1146 16.2695 15.3154 17.1843 14.2824 17.1843H2.71753C1.68459 17.1843 0.885396 16.2695 1.01351 15.2338L1.34881 12.5234C1.50995 11.2209 2.60575 10.2434 3.90485 10.2434H4.20679" stroke="#D7832C" stroke-width="2" stroke-linecap="round" stroke-linejoin="round"/>
</svg>
