<svg width="52" height="38" viewBox="0 0 52 38" fill="none" xmlns="http://www.w3.org/2000/svg">
<rect x="26.6499" y="8.44995" width="19.5" height="4.01471" rx="2.00735" fill="#FE8304"/>
<rect x="26.6499" y="16.8999" width="19.5" height="4.01471" rx="2.00735" fill="#FE8304"/>
<rect x="1.3" y="1.3" width="49.4" height="34.45" rx="5.2" stroke="#FE8304" stroke-width="2.6"/>
<path d="M15.9251 9.54271C17.386 9.54271 18.5698 10.7265 18.5698 12.1874C18.5698 13.6483 17.386 14.8321 15.9251 14.8321C14.4642 14.8321 13.2804 13.6483 13.2804 12.1874C13.2804 10.7265 14.4642 9.54271 15.9251 9.54271ZM15.9251 20.8771C19.6654 20.8771 23.6073 22.7158 23.6073 23.5218V24.9071H8.24291V23.5218C8.24291 22.7158 12.1848 20.8771 15.9251 20.8771ZM15.9251 7.1499C13.1419 7.1499 10.8876 9.40418 10.8876 12.1874C10.8876 14.9706 13.1419 17.2249 15.9251 17.2249C18.7083 17.2249 20.9626 14.9706 20.9626 12.1874C20.9626 9.40418 18.7083 7.1499 15.9251 7.1499ZM15.9251 18.4843C12.5626 18.4843 5.8501 20.1718 5.8501 23.5218V27.2999H26.0001V23.5218C26.0001 20.1718 19.2876 18.4843 15.9251 18.4843Z" fill="#FE8304"/>
</svg>
