<svg width="27" height="29" viewBox="0 0 27 29" fill="none" xmlns="http://www.w3.org/2000/svg">
<path d="M11.8482 2.1226C12.6862 1.0458 14.3138 1.0458 15.1518 2.1226L15.7664 2.91239C16.2881 3.58274 17.1631 3.87134 17.9812 3.64285L18.9115 3.38303C20.2045 3.02189 21.4984 3.9543 21.565 5.29518L21.6246 6.49739C21.6652 7.31602 22.18 8.03561 22.9416 8.33851L24.0061 8.7619C25.2204 9.24486 25.7001 10.7102 25.0064 11.8178L24.3209 12.9122C23.8953 13.5918 23.8953 14.4547 24.3209 15.1343L25.0064 16.2287C25.7001 17.3363 25.2204 18.8017 24.0061 19.2846L22.9416 19.708C22.18 20.0109 21.6652 20.7305 21.6246 21.5491L21.565 22.7513C21.4984 24.0922 20.2045 25.0246 18.9115 24.6635L17.9812 24.4037C17.1631 24.1752 16.2881 24.4638 15.7664 25.1341L15.1518 25.9239C14.3138 27.0007 12.6862 27.0007 11.8482 25.9239L11.2336 25.1341C10.7119 24.4638 9.83686 24.1752 9.01877 24.4037L8.08852 24.6635C6.79547 25.0246 5.50158 24.0922 5.43504 22.7513L5.37539 21.5491C5.33477 20.7305 4.82005 20.0109 4.05843 19.708L2.99389 19.2846C1.77955 18.8017 1.29988 17.3363 1.99359 16.2287L2.6791 15.1343C3.10473 14.4547 3.10473 13.5918 2.6791 12.9122L1.99359 11.8178C1.29988 10.7102 1.77955 9.24486 2.99389 8.7619L4.05843 8.33851C4.82005 8.03561 5.33477 7.31602 5.37539 6.49739L5.43504 5.29518C5.50158 3.9543 6.79547 3.02189 8.08851 3.38303L9.01876 3.64285C9.83686 3.87134 10.7119 3.58274 11.2336 2.9124L11.8482 2.1226Z" fill="#FFD1A1"/>
<circle cx="9.52326" cy="9.94196" r="2.61628" fill="white"/>
<circle cx="9.53307" cy="9.95165" r="1.57958" fill="#FFD1A1"/>
<circle cx="16.4302" cy="17.6861" r="2.61628" fill="white"/>
<circle cx="16.4397" cy="17.6954" r="1.57919" fill="#FFD1A1"/>
<line x1="8.39992" y1="20.2256" x2="17.7268" y2="6.90539" stroke="white" stroke-width="1.46512"/>
</svg>
