<svg width="30" height="25" viewBox="0 0 30 25" fill="none" xmlns="http://www.w3.org/2000/svg">
<path d="M16.6667 0C9.76389 0 4.16667 5.59722 4.16667 12.5H0L5.40278 17.9028L5.5 18.0972L11.1111 12.5H6.94444C6.94444 7.125 11.2917 2.77778 16.6667 2.77778C22.0417 2.77778 26.3889 7.125 26.3889 12.5C26.3889 17.875 22.0417 22.2222 16.6667 22.2222C13.9861 22.2222 11.5556 21.125 9.80556 19.3611L7.83333 21.3333C10.0972 23.5972 13.2083 25 16.6667 25C23.5694 25 29.1667 19.4028 29.1667 12.5C29.1667 5.59722 23.5694 0 16.6667 0ZM15.2778 6.94444V13.8889L21.2222 17.4167L22.2222 15.7361L17.3611 12.8472V6.94444H15.2778Z" fill="#FFD1A1"/>
</svg>
