<svg width="46" height="46" viewBox="0 0 46 46" fill="none" xmlns="http://www.w3.org/2000/svg">
<circle cx="23" cy="23" r="23" fill="#FE8304"/>
<path d="M8.49219 14.7731C8.49219 13.2585 9.79125 12.0308 11.3937 12.0308H34.606C36.2086 12.0308 37.5076 13.2585 37.5076 14.7731V23V31.2269C37.5076 32.7415 36.2086 33.9692 34.606 33.9692H11.3937C9.79125 33.9692 8.49219 32.7415 8.49219 31.2269V23V14.7731Z" fill="white" stroke="#FE8304" stroke-width="1.10466" stroke-linecap="round" stroke-linejoin="round"/>
<path d="M8.49219 17.5154H37.5076H8.49219Z" fill="white"/>
<path d="M8.49219 17.5154H37.5076" stroke="#FE8304" stroke-width="1.10466" stroke-linecap="round" stroke-linejoin="round"/>
<path d="M8.49219 23H18.6476C18.6476 24.3712 19.518 27.1135 22.9999 27.1135C26.4817 27.1135 27.3522 24.3712 27.3522 23H37.5076" fill="white"/>
<path d="M8.49219 23H18.6476C18.6476 24.3712 19.518 27.1135 22.9999 27.1135C26.4817 27.1135 27.3522 24.3712 27.3522 23H37.5076" stroke="#FE8304" stroke-width="1.10466" stroke-linecap="round" stroke-linejoin="round"/>
</svg>
