<svg width="284" height="32" viewBox="0 0 284 32" fill="none" xmlns="http://www.w3.org/2000/svg">
<rect x="149.175" y="13" width="105" height="6" fill="#FFF0E0"/>
<rect x="16.5" y="13" width="120" height="6" fill="#FE8304"/>
<circle cx="16.1754" cy="16" r="16" fill="#FE8304"/>
<path d="M15.9085 12.2054H13.1048V10.1902H18.064V23H15.9085V12.2054Z" fill="white"/>
<ellipse cx="267.175" cy="15.9999" rx="16" ry="15.9999" fill="#FFF0E0"/>
<path d="M266.774 17.2282H265.214V15.7737L268.509 12.7421H263.181V10.7619H271.312V12.5494L268.193 15.4232C270.156 15.8088 271.68 17.2457 271.68 19.5063C271.68 22.1348 269.63 23.7996 267.037 23.7996C264.531 23.7996 262.586 22.2575 262.586 19.4888H264.794C264.794 20.9607 265.705 21.8019 267.072 21.8019C268.474 21.8019 269.402 20.8906 269.402 19.4712C269.402 18.1745 268.561 17.2282 266.774 17.2282Z" fill="#FE8304"/>
<circle cx="150.5" cy="16" r="16" fill="#FE8304"/>
<ellipse cx="150.5" cy="16.1463" rx="6" ry="6.14634" fill="#FFFBFB"/>
</svg>
