<svg width="284" height="32" viewBox="0 0 284 32" fill="none" xmlns="http://www.w3.org/2000/svg">
<rect x="149.175" y="13" width="105" height="6" fill="#FE8304"/>
<rect x="16.5" y="13" width="120" height="6" fill="#FE8304"/>
<circle cx="16.1753" cy="16" r="16" fill="#FE8304"/>
<path d="M15.9085 12.2054H13.1048V10.1902H18.064V23H15.9085V12.2054Z" fill="white"/>
<ellipse cx="267.175" cy="15.9999" rx="16" ry="15.9999" fill="#FE8304"/>
<ellipse cx="267.5" cy="16.1463" rx="6" ry="6.14634" fill="#FFFBFB"/>
<circle cx="150.5" cy="16" r="16" fill="#FE8304"/>
<path d="M154.531 22.9825L145.647 23V21.3177L149.835 17.7779C151.57 16.3059 152.148 15.4648 152.148 14.2381C152.148 12.7837 151.359 11.9601 150.01 11.9601C148.608 11.9601 147.732 12.9414 147.714 14.5886H145.489C145.506 11.7848 147.294 9.96236 150.01 9.96236C152.744 9.96236 154.443 11.522 154.443 14.1155C154.443 15.9029 153.462 17.2522 151.517 18.917L149.204 20.8972H154.531V22.9825Z" fill="white"/>
</svg>
