<svg width="14" height="18" viewBox="0 0 14 18" fill="none" xmlns="http://www.w3.org/2000/svg">
<path d="M7 12.6C7.24792 12.6 7.45588 12.5136 7.62388 12.3408C7.79188 12.168 7.87558 11.9544 7.875 11.7C7.875 11.445 7.791 11.2311 7.623 11.0583C7.455 10.8855 7.24733 10.7994 7 10.8C6.75208 10.8 6.54412 10.8864 6.37612 11.0592C6.20812 11.232 6.12442 11.4456 6.125 11.7C6.125 11.955 6.209 12.1689 6.377 12.3417C6.545 12.5145 6.75267 12.6006 7 12.6ZM0 15.3V13.5H1.75V7.2C1.75 5.955 2.11458 4.8486 2.84375 3.8808C3.57292 2.913 4.52083 2.2794 5.6875 1.98V1.35C5.6875 0.975002 5.81525 0.656102 6.07075 0.393302C6.32625 0.130502 6.636 -0.00059795 7 2.05011e-06C7.36458 2.05011e-06 7.67462 0.131402 7.93012 0.394202C8.18563 0.657002 8.31308 0.975602 8.3125 1.35V1.98C9.47917 2.28 10.4271 2.9139 11.1562 3.8817C11.8854 4.8495 12.25 5.9556 12.25 7.2V13.5H14V15.3H0ZM7 18C6.51875 18 6.10663 17.8236 5.76363 17.4708C5.42062 17.118 5.24942 16.6944 5.25 16.2H8.75C8.75 16.695 8.5785 17.1189 8.2355 17.4717C7.8925 17.8245 7.48067 18.0006 7 18Z" fill="white"/>
</svg>
