<svg width="26" height="25" viewBox="0 0 26 25" fill="none" xmlns="http://www.w3.org/2000/svg">
<path d="M17.9118 24.9518C16.5193 24.7174 15.3868 24.1359 14.4225 23.1607C13.5609 22.2893 12.9952 21.2266 12.7306 19.9822C12.6655 19.6763 12.6422 19.353 12.6422 18.7593C12.6422 18.1657 12.6657 17.8422 12.7306 17.5365C12.9986 16.2761 13.5656 15.2192 14.4486 14.3342C15.3316 13.449 16.386 12.8807 17.6434 12.6119C18.2219 12.489 19.5048 12.489 20.0834 12.6119C21.3407 12.8807 22.3951 13.449 23.2781 14.3342C24.1611 15.2192 24.7281 16.2761 24.9962 17.5365C25.0612 17.8422 25.0845 18.1657 25.0845 18.7593C25.0845 19.353 25.061 19.6763 24.9962 19.9822C24.7281 21.2426 24.1611 22.2995 23.2781 23.1845C22.4126 24.052 21.3434 24.6341 20.1322 24.8968C19.6303 25.0051 18.4112 25.0372 17.9118 24.9518ZM19.9858 23.3101C20.2253 23.2518 20.6274 23.0959 20.9374 22.9414C21.8914 22.4653 22.5604 21.7949 23.0356 20.8382C23.4063 20.092 23.5194 19.6061 23.5194 18.7593C23.5194 17.9126 23.4063 17.4267 23.0356 16.6805C22.5605 15.724 21.8915 15.0534 20.9374 14.5771C20.1929 14.2057 19.7081 14.0924 18.8634 14.0924C18.0187 14.0924 17.5338 14.2049 16.7894 14.5771C15.8352 15.0534 15.1662 15.724 14.6911 16.6805C14.3205 17.4267 14.2074 17.9126 14.2074 18.7593C14.2074 19.6061 14.3204 20.092 14.6911 20.8382C15.3622 22.1893 16.5663 23.0953 18.0699 23.3811C18.5696 23.477 19.4349 23.4434 19.9858 23.3101ZM17.7629 20.2568C17.5665 20.1693 17.3615 19.9201 17.3256 19.724C17.309 19.6365 17.3034 18.7922 17.3111 17.8457C17.3256 16.1961 17.3298 16.1192 17.4264 15.9899C17.6176 15.7332 17.7736 15.6532 18.0822 15.6532C18.3908 15.6532 18.5467 15.7324 18.738 15.9899C18.8328 16.1169 18.8394 16.2003 18.8531 17.4399L18.8677 18.7549L20.1796 18.7757C21.4164 18.7965 21.4992 18.7965 21.6262 18.8903C21.8822 19.082 21.9621 19.2384 21.9621 19.5476C21.9621 19.857 21.8823 20.0132 21.6261 20.2049C21.4964 20.3028 21.4241 20.307 19.7015 20.3174C18.2878 20.3174 17.8804 20.3174 17.7628 20.2632L17.7629 20.2568ZM1.31961 20.2568C0.888127 20.1213 0.530431 19.8099 0.302449 19.3728L0.148438 19.0776V11.7157V4.35377L0.291225 4.07127C0.460409 3.73606 0.818209 3.38481 1.13824 3.2396C1.31657 3.15835 1.49099 3.13126 1.91217 3.11668L2.45588 3.09585L2.47667 3.67564C2.50098 4.38627 2.59888 4.64835 2.97276 5.00273C3.28569 5.2994 3.60779 5.42961 4.02902 5.42961C4.45027 5.42961 4.77237 5.30044 5.08529 5.00273C5.45829 4.64919 5.55712 4.38564 5.58125 3.68085L5.59995 3.10606H10.2745H14.9491L14.9678 3.68085C14.9919 4.38564 15.0906 4.64919 15.4637 5.00273C15.7766 5.2994 16.0988 5.42961 16.52 5.42961C16.9412 5.42961 17.2633 5.30044 17.5763 5.00273C17.95 4.64835 18.048 4.38627 18.0724 3.67564L18.0931 3.09585L18.6369 3.11668C19.058 3.13751 19.2325 3.16043 19.4108 3.2396C19.7308 3.38543 20.0885 3.73606 20.2578 4.07127L20.4006 4.35377L20.4151 7.64337L20.4297 10.933H19.6472H18.8648V9.36775V7.80233H10.2759H1.68705V13.2224C1.68705 17.3726 1.7016 18.6559 1.74566 18.7009C1.79035 18.7447 2.89736 18.7593 6.43051 18.7593H11.0568V19.542V20.3247H6.28654C2.59659 20.3247 1.4721 20.3038 1.3211 20.2601L1.31961 20.2568ZM3.24722 15.6288V14.0636H4.80884H6.37045V15.6288V17.1942H4.80884H3.24722V15.6288ZM7.93207 15.6288V14.0636H9.49367H11.0553V15.6288V17.1942H9.49367H7.93207V15.6288ZM3.24722 10.933V9.36775H4.80884H6.37045V10.933V12.4984H4.80884H3.24722V10.933ZM7.93207 10.933V9.36775H9.49367H11.0553V10.933V12.4984H9.49367H7.93207V10.933ZM12.6169 10.933V9.36775H14.1785H15.7401V10.933V12.4984H14.1785H12.6169V10.933ZM3.7084 4.60544C3.51095 4.51585 3.30679 4.26606 3.27108 4.07085C3.25445 3.98335 3.24884 3.13897 3.25653 2.19251C3.27108 0.542919 3.27524 0.466252 3.37188 0.336877C3.5631 0.0802087 3.71908 0 4.02767 0C4.33629 0 4.49228 0.079167 4.68347 0.336877C4.78095 0.468127 4.78407 0.530628 4.78407 2.32355C4.78407 4.11731 4.77991 4.17939 4.68347 4.31023C4.62819 4.38523 4.52551 4.48731 4.4553 4.54085C4.29381 4.66169 3.90591 4.69502 3.7084 4.60544ZM16.2013 4.60544C16.0039 4.51585 15.7997 4.26606 15.764 4.07085C15.7474 3.98335 15.7418 3.13897 15.7495 2.19251C15.764 0.542919 15.7682 0.466252 15.8648 0.336877C16.056 0.0802087 16.212 0 16.5206 0C16.8292 0 16.9852 0.079167 17.1764 0.336877C17.2739 0.468127 17.277 0.530628 17.277 2.32355C17.277 4.11731 17.2728 4.17939 17.1764 4.31023C17.1211 4.38523 17.0184 4.48731 16.9482 4.54085C16.7867 4.66169 16.3988 4.69502 16.2013 4.60544Z" fill="white"/>
</svg>
