<svg width="138" height="138" viewBox="0 0 138 138" fill="none" xmlns="http://www.w3.org/2000/svg">
<circle cx="69" cy="69" r="68.4344" stroke="#FE8304" stroke-width="1.13115"/>
<path d="M68.6257 82.8142C74.5875 82.8142 79.4204 77.9813 79.4204 72.0195C79.4204 66.0578 74.5875 61.2249 68.6257 61.2249C62.664 61.2249 57.8311 66.0578 57.8311 72.0195C57.8311 77.9813 62.664 82.8142 68.6257 82.8142Z" fill="#FE8304"/>
<path d="M58.6788 38.459L52.5056 45.2057H41.8121C38.1014 45.2057 35.0654 48.2417 35.0654 51.9523V92.4323C35.0654 96.143 38.1014 99.179 41.8121 99.179H95.7854C99.4961 99.179 102.532 96.143 102.532 92.4323V51.9523C102.532 48.2417 99.4961 45.2057 95.7854 45.2057H85.092L78.9188 38.459H58.6788ZM68.7988 89.059C59.4884 89.059 51.9321 81.5027 51.9321 72.1923C51.9321 62.8819 59.4884 55.3257 68.7988 55.3257C78.1092 55.3257 85.6654 62.8819 85.6654 72.1923C85.6654 81.5027 78.1092 89.059 68.7988 89.059Z" fill="#FE8304"/>
</svg>
