<svg width="34" height="29" viewBox="0 0 34 29" fill="none" xmlns="http://www.w3.org/2000/svg">
<path d="M8.24428 27.1857L8.24377 27.1852C7.69981 26.6316 7.44317 26.0032 7.44317 25.2492V10.3091V10.1099L7.36687 9.92595L4.42717 2.83846L4.17131 2.22159H3.50348H1V1H5.00881L7.41142 6.82451L7.66662 7.44317H8.33586H32.1353C32.4195 7.44317 32.5655 7.5305 32.6993 7.74229C32.779 7.86844 32.7954 7.95358 32.7968 8.00913C32.7982 8.06561 32.7858 8.15702 32.7088 8.29691L32.7015 8.31017L32.6946 8.32364L28.1039 17.3038L27.4755 18.533L28.8393 18.7469C29.9764 18.9253 30.9149 19.4397 31.689 20.314C32.4498 21.1746 32.8267 22.1728 32.8267 23.3565C32.8267 24.6526 32.3855 25.7285 31.4849 26.6406C30.5864 27.5497 29.5207 27.9943 28.2292 27.9943C26.9054 27.9943 25.8286 27.546 24.9347 26.6406L24.9344 26.6403C24.0328 25.7281 23.5914 24.6523 23.5914 23.3565C23.5914 22.903 23.648 22.5025 23.7521 22.1487C23.8643 21.7673 24.0222 21.394 24.2281 21.0279L24.9848 19.6826L23.4477 19.5418L18.1724 19.0585L17.5794 19.0042L17.2491 19.4997L12.4167 26.7483L12.4167 26.7482L12.4103 26.758C12.1507 27.1574 11.8253 27.4562 11.4265 27.67L11.4258 27.6703C11.0198 27.8884 10.5985 27.9943 10.148 27.9943C9.40073 27.9943 8.78417 27.736 8.24428 27.1857ZM25.438 18.513L26.1149 18.5763L26.4227 17.9701L30.4095 10.1175L31.1487 8.66145L29.5158 8.66476L9.66273 8.70503L8.16119 8.70808L8.74284 10.0924L10.7532 14.8771C11.0365 15.5809 11.4897 16.1711 12.0953 16.6373C12.7222 17.1218 13.4483 17.3963 14.246 17.4663C14.2471 17.4664 14.2483 17.4665 14.2494 17.4666L25.438 18.513ZM11.1319 26.3448L11.2791 26.2397L11.3801 26.0898L15.2863 20.2909L16.2186 18.9068L14.5584 18.7374C13.3341 18.6125 12.4763 18.3271 11.9078 17.951L11.9069 17.9505C11.2236 17.4995 10.7661 17.065 10.484 16.662L8.66476 14.0631V17.2355V25.2895C8.66476 25.7385 8.86665 26.1422 9.22584 26.4116C9.50632 26.622 9.83766 26.7324 10.1883 26.7324C10.3832 26.7324 10.5358 26.6779 10.6001 26.6532C10.6807 26.6222 10.7511 26.5861 10.8048 26.5562C10.9127 26.4963 11.0247 26.4214 11.1319 26.3448ZM28.1889 26.7727C29.1377 26.7727 29.9801 26.4417 30.6381 25.7637L25.7817 20.9073C25.1037 21.5653 24.7727 22.4077 24.7727 23.3565C24.7727 24.2895 25.1109 25.1147 25.7703 25.7735C26.4293 26.434 27.2551 26.7727 28.1889 26.7727ZM30.6382 25.7635C31.2806 25.1025 31.6051 24.2803 31.6051 23.3565C31.6051 22.4171 31.2877 21.5779 30.6276 20.9178C29.9675 20.2576 29.1283 19.9403 28.1889 19.9403C27.2651 19.9403 26.4429 20.2648 25.7818 20.9072L30.6382 25.7635Z" stroke="white" stroke-width="2"/>
</svg>
