<svg width="43" height="49" viewBox="0 0 43 49" fill="none" xmlns="http://www.w3.org/2000/svg">
<path d="M9.03679 0C7.32305 0 5.78587 0.360614 4.74828 0.890928C3.72004 1.42124 3.32536 2.01519 3.32536 2.43945C3.32536 2.85309 3.72004 3.45871 4.74828 3.97736C5.78587 4.50767 7.32305 4.87889 9.03679 4.87889C10.7505 4.87889 12.2877 4.50767 13.3159 3.97736C14.3546 3.45871 14.7493 2.85309 14.7493 2.43945C14.7493 2.01519 14.3546 1.42124 13.3159 0.890928C12.2877 0.360614 10.7505 0 9.03679 0ZM25.6549 3.39401C23.9411 3.39401 22.404 3.75463 21.3757 4.28494C20.3371 4.81526 19.9424 5.40921 19.9424 5.83346C19.9424 6.24711 20.3371 6.85272 21.3757 7.37137C22.404 7.90169 23.9411 8.27185 25.6549 8.27185C26.1326 8.27185 26.5896 8.24003 27.0259 8.18699C27.4725 7.60471 28.106 7.08818 28.8435 6.74454C29.6951 6.35211 30.6818 6.03392 31.3673 5.83346C31.3673 5.40921 30.9727 4.81526 29.934 4.28494C28.9058 3.75463 27.3686 3.39401 25.6549 3.39401ZM3.32536 5.34451C3.28381 6.89939 4.93316 7.53365 5.97283 7.84759C7.83197 8.39912 10.2416 8.39912 12.1007 7.84759C13.4302 7.4594 14.7389 6.7106 14.7493 5.34451C13.0771 6.47196 10.6363 6.7753 9.03679 6.78696C7.01146 6.61408 4.88434 6.39984 3.32536 5.34451ZM33.9639 7.56228C32.2502 7.56228 30.713 7.9229 29.6848 8.46276C28.6461 8.98247 28.2514 9.58703 28.2514 10.0007C28.2514 10.4249 28.6461 11.0189 29.6848 11.5492C30.713 12.0795 32.2502 12.4401 33.9639 12.4401C35.6777 12.4401 37.2148 12.0795 38.2431 11.5492C39.2817 11.0189 39.6764 10.4249 39.6764 10.0007C39.6764 9.58703 39.2817 8.98247 38.2431 8.46276C37.2148 7.9229 35.6777 7.56228 33.9639 7.56228ZM19.9424 8.73852V8.99307C20.2436 9.09914 20.5344 9.22641 20.8045 9.36429C21.7392 9.84158 22.5494 10.5098 22.9648 11.3477C24.0242 11.6128 25.2186 11.7083 26.3819 11.634V10.1598C26.143 10.1704 25.9041 10.181 25.6549 10.181C23.6919 10.181 21.9054 9.78854 20.5344 9.08853C20.3267 8.98247 20.1294 8.8658 19.9424 8.73852ZM3.32536 8.74913C3.29004 10.2976 4.93731 10.934 5.97283 11.2522C6.6791 11.4537 7.46845 11.5916 8.27859 11.634C8.48631 11.0825 8.86022 10.5946 9.33799 10.181C8.00854 10.2128 6.66871 10.0431 5.45351 9.69309C4.64442 9.44914 3.92776 9.14156 3.32536 8.74913ZM15.684 10.181C13.9703 10.181 12.4331 10.5522 11.4049 11.0719C10.3662 11.6022 9.97155 12.1962 9.97155 12.6204C9.97155 13.0447 10.3662 13.6386 11.4049 14.1689C12.4331 14.6993 13.9703 15.0599 15.684 15.0599C17.3978 15.0599 18.9349 14.6993 19.9632 14.1689C21.0018 13.6386 21.3965 13.0447 21.3965 12.6204C21.3965 12.1962 21.0018 11.6022 19.9632 11.0719C18.9349 10.5522 17.3978 10.181 15.684 10.181ZM3.32536 12.1431C3.29004 13.6917 4.93731 14.328 5.97283 14.6462C6.62716 14.8371 7.35421 14.9644 8.10202 15.0174V13.5538C7.18802 13.4901 6.2948 13.331 5.45351 13.0871C4.64442 12.8432 3.92776 12.5356 3.32536 12.1431ZM28.2514 12.9174C28.2307 14.4765 29.8509 15.1023 30.9 15.4205C32.7591 15.972 35.1687 15.972 37.0279 15.4205C38.3469 15.0281 39.666 14.2856 39.6764 12.9174C39.4894 13.0341 39.2921 13.1507 39.0844 13.2568C37.7134 13.9568 35.9269 14.3493 33.9639 14.3493C32.0009 14.3493 30.2145 13.9568 28.8435 13.2568C28.6357 13.1507 28.4384 13.0341 28.2514 12.9174ZM23.266 13.3629V14.8159C24.2423 15.0174 25.3329 15.0917 26.3819 15.0281V13.5644C25.3329 13.6174 24.2735 13.5538 23.266 13.3629ZM9.97155 15.5265C9.91962 16.1629 10.2001 16.6826 10.5428 16.9902C10.979 17.372 11.6853 17.7645 12.6201 18.0402C14.4792 18.5812 16.8888 18.5812 18.748 18.0402C19.6827 17.7645 20.389 17.372 20.8252 16.9902C21.3342 16.5554 21.3965 16.1311 21.3965 15.5265C21.2095 15.6538 21.0122 15.7705 20.8045 15.8766C19.4335 16.5766 17.647 16.969 15.684 16.969C13.721 16.969 11.9346 16.5766 10.5636 15.8766C10.3558 15.7705 10.1585 15.6538 9.97155 15.5265ZM3.32536 15.5372C3.29004 17.0857 4.93731 17.7221 5.97283 18.0402C6.62716 18.2312 7.35421 18.3584 8.10202 18.4115V16.9478C7.18802 16.8842 6.2948 16.7251 5.45351 16.4811C4.64442 16.2372 3.92776 15.9296 3.32536 15.5372ZM28.2514 16.3114C28.2307 17.8705 29.8509 18.4963 30.9 18.8145C32.7591 19.366 35.1687 19.366 37.0279 18.8145C38.3469 18.4221 39.666 17.6796 39.6764 16.3114C39.074 16.7038 38.3573 17.0114 37.5472 17.2554C35.2934 17.9236 32.6345 17.9236 30.3806 17.2554C29.5705 17.0114 28.8539 16.7038 28.2514 16.3114ZM23.266 16.7569V18.2099C24.2423 18.4115 25.3329 18.4857 26.3819 18.4221V16.9584C25.3329 17.0114 24.2735 16.9478 23.266 16.7569ZM3.32536 18.9312C3.29004 20.4797 4.93731 21.1161 5.97283 21.4343C6.62716 21.6252 7.35421 21.7524 8.10202 21.8055V20.3418C7.18802 20.2782 6.2948 20.1191 5.45351 19.8751C4.64442 19.6312 3.92776 19.3236 3.32536 18.9312ZM9.97155 18.9312C9.91962 19.5675 10.2001 20.0766 10.5428 20.3842C10.979 20.7661 11.6853 21.1585 12.6201 21.4343C14.4792 21.9752 16.8888 21.9752 18.748 21.4343C19.6827 21.1585 20.389 20.7661 20.8252 20.3842C21.3342 19.9494 21.3965 19.5357 21.3965 18.9312C20.7941 19.3236 20.0774 19.6312 19.2673 19.8751C17.0135 20.5327 14.3546 20.5327 12.1007 19.8751C11.2906 19.6312 10.574 19.3236 9.97155 18.9312ZM28.2514 19.7054C28.2307 21.2646 29.8509 21.8903 30.9 22.2085C32.7591 22.76 35.1687 22.76 37.0279 22.2085C38.3469 21.8161 39.666 21.0736 39.6764 19.7054C39.074 20.0979 38.3573 20.4054 37.5472 20.6494C35.2934 21.3176 32.6345 21.3176 30.3806 20.6494C29.5705 20.4054 28.8539 20.0979 28.2514 19.7054ZM23.266 20.1509V21.604C24.2423 21.8055 25.3329 21.8797 26.3819 21.8161V20.3524C25.3329 20.4054 24.2735 20.3418 23.266 20.1509ZM9.97155 22.3252V22.5691C10.2728 22.6752 10.5636 22.8025 10.8336 22.9403C11.7684 23.4176 12.5785 24.0858 12.994 24.9237C14.7908 25.3692 17.0135 25.3374 18.748 24.8283C19.6827 24.5525 20.389 24.1601 20.8252 23.7782C21.3342 23.3434 21.3965 22.9297 21.3965 22.3252C20.7941 22.7176 20.0774 23.0252 19.2673 23.2691C17.0135 23.9267 14.3546 23.9267 12.1007 23.2691C11.2906 23.0252 10.574 22.7176 9.97155 22.3252ZM28.2514 23.0994C28.2307 24.6586 29.8509 25.2843 30.9 25.6025C32.7591 26.1541 35.1687 26.1541 37.0279 25.6025C38.3469 25.2101 39.666 24.4677 39.6764 23.0994C39.074 23.4919 38.3573 23.7995 37.5472 24.0434C35.2934 24.7116 32.6345 24.7116 30.3806 24.0434C29.5705 23.7995 28.8539 23.4919 28.2514 23.0994ZM23.266 23.5449V24.998C24.2423 25.1995 25.3329 25.2737 26.3819 25.2101V23.7464C25.3329 23.7995 24.2735 23.7358 23.266 23.5449ZM5.71317 23.757C4.00047 23.757 2.46329 24.1283 1.42466 24.648C0.39642 25.1783 0.00174055 25.7722 0.00174055 26.1965C0.00174055 26.6207 0.39642 27.2147 1.42466 27.745C2.46329 28.2753 4.00047 28.6359 5.71317 28.6359C7.42691 28.6359 8.96408 28.2753 9.99233 27.745C11.031 27.2147 11.4256 26.6207 11.4256 26.1965C11.4256 25.7722 11.031 25.1783 9.99233 24.648C8.96408 24.1283 7.42691 23.757 5.71317 23.757ZM21.3965 25.7192C20.7941 26.1116 20.0774 26.4192 19.2673 26.6632C17.3978 27.2041 15.2582 27.2995 13.2952 26.9389V28.392C15.0401 28.7632 17.1069 28.6996 18.748 28.2223C20.0567 27.8298 21.3861 27.0768 21.3965 25.7192ZM28.2514 26.4935C28.2203 27.9995 29.7782 28.6465 30.8065 28.9647C31.3881 28.4874 31.9178 28.1268 32.541 27.8617C31.7932 27.7768 31.0661 27.6389 30.3806 27.4374C29.5705 27.1935 28.8539 26.8859 28.2514 26.4935ZM39.6764 26.4935C39.3856 26.6844 39.0636 26.8541 38.7105 27.0132C39.0324 27.045 39.3544 27.0874 39.6556 27.1404C39.6972 26.9283 39.6764 26.7162 39.6764 26.4935ZM23.266 26.9389V28.3814C24.3981 28.6041 25.3433 28.6571 26.3819 28.6147V27.1404C25.3329 27.1935 24.2735 27.1298 23.266 26.9389ZM37.2875 28.848C35.5738 28.848 34.0366 29.2193 33.0084 29.739C31.9697 30.2693 31.5751 30.8632 31.5751 31.2875C31.5751 31.7117 31.9697 32.3057 33.0084 32.836C34.0366 33.3663 35.5738 33.7269 37.2875 33.7269C39.0013 33.7269 40.5384 33.3663 41.5667 32.836C42.6053 32.3057 43 31.7117 43 31.2875C43 30.8632 42.6053 30.2693 41.5667 29.739C40.5384 29.2193 39.0013 28.848 37.2875 28.848ZM0.00174055 29.1026C-0.0283797 30.6723 1.59188 31.2981 2.65025 31.6163C4.5094 32.1572 6.91798 32.1572 8.77713 31.6163C10.0962 31.2239 11.4152 30.4708 11.4256 29.1026C11.2387 29.2299 11.0413 29.3465 10.8336 29.4526C9.46263 30.1526 7.67618 30.5451 5.71317 30.5451C3.67641 30.3754 1.57111 30.1632 0.00174055 29.1026ZM21.3965 29.1132C20.7941 29.5056 20.0774 29.8132 19.2673 30.0572C17.3978 30.5981 15.2582 30.6935 13.2952 30.3329V31.786C15.0401 32.1572 17.1069 32.0936 18.748 31.6163C20.0567 31.2239 21.3861 30.4708 21.3965 29.1132ZM28.2514 29.8875C28.2099 30.9799 29.0824 31.5951 29.6848 31.9133C29.6848 31.9133 29.6951 31.9239 29.7055 31.9239V30.6087C29.1654 30.4072 28.6773 30.1632 28.2514 29.8875ZM0.00174055 32.5072C-0.0335729 34.0557 1.6137 34.6921 2.65025 35.0103C4.5094 35.5512 6.91798 35.5512 8.77713 35.0103C10.0858 34.6179 11.4152 33.8648 11.4256 32.5072C10.8232 32.8997 10.1066 33.2072 9.29644 33.4512C7.04262 34.1088 4.38476 34.1088 2.13093 33.4512C1.3208 33.2072 0.604146 32.8997 0.00174055 32.5072ZM13.2952 33.7269V35.1694C13.8041 35.2861 14.3546 35.3603 14.9258 35.4027C15.1335 34.8406 15.5075 34.3527 15.9852 33.9391C15.0816 33.9603 14.1676 33.886 13.2952 33.7269ZM22.3313 33.9391C20.6175 33.9391 19.0803 34.3103 18.0521 34.83C17.0135 35.3603 16.6188 35.9543 16.6188 36.3785C16.6188 36.8028 17.0135 37.3967 18.0521 37.927C19.0803 38.4573 20.6175 38.818 22.3313 38.818C24.045 38.818 25.5822 38.4573 26.6104 37.927C27.649 37.3967 28.0437 36.8028 28.0437 36.3785C28.0437 35.9543 27.649 35.3603 26.6104 34.83C25.5822 34.3103 24.045 33.9391 22.3313 33.9391ZM31.5751 34.1936C31.5647 35.7633 33.1538 36.3891 34.2236 36.7073C36.0827 37.2482 38.4923 37.2482 40.3515 36.7073C41.6706 36.3149 42.9896 35.5618 43 34.1936C41.359 35.2118 38.8766 35.6255 37.2875 35.6361C35.2518 35.4664 33.1434 35.2542 31.5751 34.1936ZM0.00174055 35.9012C-0.0335729 37.4497 1.6137 38.0861 2.65025 38.4043C4.5094 38.9452 6.91798 38.9452 8.77713 38.4043C10.0858 38.0119 11.4152 37.2588 11.4256 35.9012C10.8232 36.2937 10.1066 36.6012 9.29644 36.8452C7.04262 37.5028 4.38476 37.5028 2.13093 36.8452C1.3208 36.6012 0.604146 36.2937 0.00174055 35.9012ZM31.5751 37.5982C31.5543 39.1574 33.1746 39.7831 34.2236 40.1013C36.0827 40.6422 38.4923 40.6422 40.3515 40.1013C41.6602 39.7089 42.9896 38.9558 43 37.5982C42.3976 37.9907 41.6809 38.2983 40.8708 38.5422C38.617 39.1998 35.9581 39.1998 33.7043 38.5422C32.8941 38.2983 32.1775 37.9907 31.5751 37.5982ZM16.6188 39.2846C16.5669 39.921 16.8473 40.4407 17.19 40.7483C17.6263 41.1301 18.3325 41.5226 19.2673 41.7983C21.1264 42.3392 23.5361 42.3392 25.3952 41.7983C26.33 41.5226 27.0363 41.1301 27.4725 40.7483C27.9087 40.3665 28.0437 40.0377 28.0437 39.7725V39.2846C27.8568 39.4119 27.6594 39.5286 27.4517 39.6346C26.0807 40.3347 24.2943 40.7271 22.3313 40.7271C20.3682 40.7271 18.5818 40.3347 17.2108 39.6346C17.0031 39.5286 16.8057 39.4119 16.6188 39.2846ZM0.00174055 39.2952C-0.0335729 40.8438 1.6137 41.4801 2.65025 41.7983C4.5094 42.3392 6.91798 42.3392 8.77713 41.7983C10.0858 41.4059 11.4152 40.6529 11.4256 39.2952C10.8232 39.6877 10.1066 39.9953 9.29644 40.2392C7.04262 40.8968 4.38476 40.8968 2.13093 40.2392C1.3208 39.9953 0.604146 39.6877 0.00174055 39.2952ZM31.5751 40.9923C31.5543 42.5514 33.1746 43.1771 34.2236 43.4953C36.0827 44.0363 38.4923 44.0363 40.3515 43.4953C41.6602 43.1029 42.9896 42.3499 43 40.9923C42.3976 41.3847 41.6809 41.6923 40.8708 41.9362C38.617 42.5938 35.9581 42.5938 33.7043 41.9362C32.8941 41.6923 32.1775 41.3847 31.5751 40.9923ZM0.00174055 42.6893C-0.0335729 44.2378 1.6137 44.8742 2.65025 45.1923C4.5094 45.7333 6.91798 45.7333 8.77713 45.1923C10.0858 44.7999 11.4152 44.0469 11.4256 42.6893C10.8232 43.0817 10.1066 43.3893 9.29644 43.6332C7.04262 44.2908 4.38476 44.2908 2.13093 43.6332C1.3208 43.3893 0.604146 43.0817 0.00174055 42.6893ZM16.6188 42.6893C16.5772 43.7817 17.4497 44.3969 18.0521 44.7151C19.0803 45.2454 20.6175 45.606 22.3313 45.606C24.045 45.606 25.5822 45.2454 26.6104 44.7151C27.6387 44.0575 28.0437 43.8029 28.0437 42.6893C27.4413 43.0817 26.7247 43.3893 25.9145 43.6332C23.6607 44.2908 21.0018 44.2908 18.748 43.6332C17.9378 43.3893 17.2212 43.0817 16.6188 42.6893ZM31.5751 44.3863C31.5335 45.4787 32.406 46.0939 33.0084 46.4121C34.0366 46.9424 35.5738 47.303 37.2875 47.303C39.0013 47.303 40.5384 46.9424 41.5667 46.4121C42.5949 45.7545 43 45.4999 43 44.3863C42.3976 44.7787 41.6809 45.0863 40.8708 45.3302C38.617 45.9878 35.9581 45.9878 33.7043 45.3302C32.8941 45.0863 32.1775 44.7787 31.5751 44.3863ZM0.00174055 46.0833C-0.0439592 47.1651 0.820181 47.7909 1.42466 48.1091C2.46329 48.6394 4.00047 49 5.71317 49C7.42691 49 8.96408 48.6394 9.99233 48.1091C11.0206 47.4515 11.4256 47.1969 11.4256 46.0833C10.8232 46.4757 10.1066 46.7833 9.29644 47.0272C7.04262 47.6848 4.38476 47.6848 2.13093 47.0272C1.3208 46.7833 0.604146 46.4757 0.00174055 46.0833Z" fill="#FE8304"/>
</svg>
