<svg width="44" height="43" viewBox="0 0 44 43" fill="none" xmlns="http://www.w3.org/2000/svg">
<path d="M0.633615 37.598V34.1069C2.36313 35.3049 4.78503 36.1842 7.54904 36.7659C10.349 37.3552 13.5029 37.6398 16.65 37.6398C19.797 37.6398 22.951 37.3552 25.7509 36.7659C28.5149 36.1842 30.9368 35.3049 32.6663 34.1069V37.598C32.6663 38.3177 32.228 39.0105 31.4199 39.647C30.6123 40.2831 29.4411 40.858 27.9904 41.3418C25.0893 42.3092 21.0794 42.9089 16.65 42.9089C12.2205 42.9089 8.21063 42.3092 5.30957 41.3418C3.85882 40.858 2.68767 40.2831 1.88006 39.647C1.07197 39.0105 0.633615 38.3177 0.633615 37.598ZM43.3718 5.48163C43.3718 6.20139 42.9334 6.8942 42.1253 7.53067C41.3177 8.16676 40.1466 8.7417 38.6958 9.22546C35.7948 10.1928 31.7849 10.7925 27.3554 10.7925C22.9259 10.7925 18.9161 10.1928 16.015 9.22546C14.5643 8.7417 13.3931 8.16676 12.5855 7.53067C11.7774 6.8942 11.3391 6.20139 11.3391 5.48163C11.3391 4.76187 11.7774 4.06906 12.5855 3.43259C13.3931 2.7965 14.5643 2.22156 16.015 1.7378C18.9161 0.770436 22.9259 0.170724 27.3554 0.170724C31.7849 0.170724 35.7948 0.770436 38.6958 1.7378C40.1466 2.22156 41.3177 2.7965 42.1253 3.43259C42.9334 4.06906 43.3718 4.76187 43.3718 5.48163ZM0.633615 29.5689V25.3414C4.11343 28.1575 10.4064 29.6107 16.65 29.6107C22.8935 29.6107 29.1865 28.1575 32.6663 25.3414V29.5689C32.6663 30.2886 32.228 30.9815 31.4199 31.6179C30.6123 32.254 29.4411 32.829 27.9904 33.3127C25.0893 34.2801 21.0794 34.8798 16.65 34.8798C12.2205 34.8798 8.21063 34.2801 5.30957 33.3127C3.85882 32.829 2.68767 32.254 1.88006 31.6179C1.07197 30.9815 0.633615 30.2886 0.633615 29.5689ZM43.3718 21.5398C43.3718 22.5067 42.5813 23.4222 41.1756 24.2153C39.7825 25.0013 37.7981 25.6593 35.4263 26.1225V20.889C38.6149 20.3175 41.4327 19.3957 43.3718 18.0489V21.5398ZM0.633615 20.2016C0.633615 19.292 1.0759 18.4218 1.88353 17.6264C2.6913 16.8308 3.86226 16.1126 5.31242 15.5085C8.21255 14.3005 12.2214 13.5525 16.65 13.5525C21.0786 13.5525 25.0874 14.3005 27.9875 15.5085C29.4377 16.1126 30.6086 16.8308 31.4164 17.6264C32.224 18.4218 32.6663 19.292 32.6663 20.2016C32.6663 21.1112 32.224 21.9814 31.4164 22.7768C30.6086 23.5724 29.4377 24.2907 27.9875 24.8947C25.0874 26.1028 21.0786 26.8507 16.65 26.8507C12.2214 26.8507 8.21255 26.1028 5.31242 24.8947C3.86226 24.2907 2.6913 23.5724 1.88353 22.7768C1.0759 21.9814 0.633615 21.1112 0.633615 20.2016ZM43.3718 13.5107C43.3718 14.5022 42.5402 15.4428 41.0642 16.2518C39.5981 17.0554 37.5098 17.721 35.0183 18.1721C34.2841 16.2299 32.5215 14.653 30.1364 13.4689C35.4095 13.1889 40.4137 12.0756 43.3718 10.0198V13.5107Z" fill="#FE8304" stroke="black" stroke-width="0.0836363"/>
</svg>
