<svg width="49" height="50" viewBox="0 0 49 50" fill="none" xmlns="http://www.w3.org/2000/svg">
<path d="M34.0606 0C25.8098 0 19.1212 3.71871 19.1212 8.31265C19.1212 12.9066 25.8117 16.6272 34.0606 16.6272C42.3114 16.6272 49 12.9066 49 8.31265C49 3.71871 42.3095 0 34.0606 0ZM49 10.7822C48.9962 15.3761 42.3114 19.0967 34.0606 19.0967C25.8327 19.0967 19.1594 15.4166 19.1212 10.8438V14.096C19.1212 16.0585 20.3679 17.8552 22.4101 19.2779C24.4751 19.8447 26.3146 20.6312 27.8462 21.626C29.7449 22.1118 31.833 22.4087 34.0606 22.4087C42.3114 22.4087 49 18.69 49 14.096V10.7822ZM49 16.5655C49 21.1595 42.3114 24.8801 34.0606 24.8801C33.0567 24.8801 32.0816 24.8049 31.1331 24.6989C31.8816 25.7151 32.3921 26.8889 32.6265 28.1323C33.1026 28.1593 33.573 28.1921 34.0606 28.1921C42.3114 28.1921 49 24.4733 49 19.8794V16.5655ZM14.9394 21.2038C6.6886 21.2038 0 24.9244 0 29.5184C0 34.1123 6.69051 37.833 14.9394 37.833C23.1902 37.833 29.8788 34.1123 29.8788 29.5184C29.8788 24.9244 23.1883 21.2038 14.9394 21.2038ZM49 22.3489C48.9962 26.9428 42.3114 30.6635 34.0606 30.6635C33.5807 30.6635 33.095 30.6288 32.6265 30.6018C32.6055 30.7464 32.594 30.9392 32.5672 31.0837C32.6628 31.3748 32.7451 31.6621 32.7451 31.9898V33.9176C33.1791 33.9388 33.6151 33.9754 34.0606 33.9754C42.3114 33.9754 49 30.2567 49 25.6628V22.3489ZM49 28.1323C48.9962 32.7262 42.3114 36.4469 34.0606 36.4469C33.5807 36.4469 33.095 36.4122 32.6265 36.3852C32.6055 36.5298 32.594 36.7225 32.5672 36.8671C32.6628 37.1563 32.7451 37.4455 32.7451 37.7732V39.701C33.1791 39.7222 33.6151 39.7588 34.0606 39.7588C42.3114 39.7588 49 36.0401 49 31.4462V28.1323ZM29.8788 31.9879C29.875 36.5818 23.1902 40.3025 14.9394 40.3025C6.71154 40.3025 0.0382424 36.6223 0 32.0476V35.3018C0 39.8957 6.68669 43.6163 14.9394 43.6163C23.1921 43.6163 29.8788 39.8957 29.8788 35.3018V31.9879ZM29.8788 37.7713C29.875 42.3652 23.1902 46.0858 14.9394 46.0858C6.71154 46.0858 0.0382424 42.4057 0 37.831V41.0851C0 45.6791 6.68669 49.3997 14.9394 49.3997C23.1921 49.3997 29.8788 45.6791 29.8788 41.0851V37.7713Z" fill="#FE8304"/>
</svg>
