<svg width="45" height="41" viewBox="0 0 45 41" fill="none" xmlns="http://www.w3.org/2000/svg">
<path d="M0.196289 28.4926V33.3691C0.196289 37.4005 10.0179 40.6782 22.1236 40.6782C34.2293 40.6782 44.0509 37.4005 44.0509 33.3691V28.4926C39.3342 31.8159 30.7118 33.3691 22.1236 33.3691C13.5354 33.3691 4.91294 31.8159 0.196289 28.4926ZM0.196289 16.5125V22.4054C0.196289 26.4369 10.0179 29.7145 22.1236 29.7145C34.2293 29.7145 44.0509 26.4369 44.0509 22.4054V16.5125C39.3342 20.3954 30.7004 22.4054 22.1236 22.4054C13.5468 22.4054 4.91294 20.3954 0.196289 16.5125ZM22.1236 0.478149C10.0179 0.478149 0.196289 4.56668 0.196289 9.61452C0.196289 14.6624 10.0179 18.7509 22.1236 18.7509C34.2293 18.7509 44.0509 14.6624 44.0509 9.61452C44.0509 4.56668 34.2293 0.478149 22.1236 0.478149Z" fill="#FE8304"/>
</svg>
