<svg width="55" height="54" viewBox="0 0 55 54" fill="none" xmlns="http://www.w3.org/2000/svg">
<path d="M47.6498 0C46.554 2.00012 44.72 2.6922 41.9286 1.63216C43.9933 2.81331 45.216 4.51468 44.7661 7.24263C46.1964 4.7869 48.1343 4.41779 50.4643 5.61509C48.3534 4.31397 46.6117 2.82138 47.6498 0ZM21.6852 2.52148C21.293 5.65546 20.4395 8.42724 16.2754 8.53106C19.4359 8.88978 21.3853 10.7353 21.6852 14.5533C21.9505 11.5428 23.3693 9.28196 27.0834 8.53106C23.1501 7.99469 21.5468 5.85731 21.6852 2.52148ZM7.80898 8.95899C7.17458 11.4966 5.61739 12.7078 2.826 12.1656C5.17907 13.619 5.652 15.6606 5.17907 18.0022C6.2172 15.1993 7.9474 14.2765 10.1851 14.7725C7.37067 13.6882 7.39373 11.4043 7.80898 8.95899ZM43.6127 9.05127C44.0279 11.4966 44.051 13.7805 41.248 14.8648C43.4742 14.3688 45.2044 15.2915 46.2426 18.0945C45.7696 15.7645 46.2426 13.7113 48.5956 12.2579C45.8042 12.8 44.2471 11.5889 43.6127 9.05127ZM27.5333 15.0493C26.426 15.0493 25.4455 15.3261 24.7996 15.7183C24.1652 16.1105 23.9575 16.4911 23.9575 16.791C23.9575 17.0909 24.1652 17.4716 24.7996 17.8638C25.4455 18.2444 26.426 18.5213 27.5333 18.5213C27.9832 18.5213 28.4215 18.4751 28.8136 18.3944C29.4481 17.6908 30.2555 17.2178 31.086 16.941C31.1552 16.3758 30.5439 15.8913 30.267 15.7183C29.6211 15.3261 28.6406 15.0493 27.5333 15.0493ZM22.3312 18.3021C21.616 18.4059 21.2815 18.6597 21.1546 18.925C20.9355 20.3668 22.6541 21.4857 23.7038 21.9817C24.7073 22.4315 25.7224 22.5815 26.4606 22.5007C27.1988 22.42 27.5448 22.1431 27.6717 21.8778C27.7986 21.601 27.764 21.1742 27.3718 20.5975C25.9877 20.5744 24.7419 20.2399 23.7384 19.6401C23.1732 19.2941 22.6657 18.8442 22.3312 18.3021ZM33.7044 18.602C32.597 18.602 31.6166 18.8788 30.9706 19.2595C30.3362 19.6516 30.1286 20.0323 30.1286 20.3322C30.1286 20.6321 30.3362 21.0127 30.9706 21.4049C31.6166 21.7856 32.597 22.0624 33.7044 22.0624C34.8117 22.0624 35.7921 21.7856 36.4381 21.4049C37.0725 21.0127 37.2801 20.6321 37.2801 20.3322C37.2801 20.0323 37.0725 19.6516 36.4381 19.2595C35.7921 18.8788 34.8117 18.602 33.7044 18.602ZM39.3333 20.0208C39.9216 21.2204 38.1452 22.766 37.3032 23.2966C37.4647 23.3774 37.6723 23.4466 37.9376 23.5042C38.6758 23.6427 39.6909 23.5734 40.729 23.1928C41.6172 22.8698 42.3554 22.3854 42.8514 21.8894C42.8975 21.2319 42.9898 20.6206 43.3935 20.1592C42.1824 19.3633 40.5329 19.5709 39.3333 20.0208ZM16.0332 19.8477C14.9259 19.8477 13.9454 20.1246 13.2995 20.5052C13.8301 21.2319 13.957 22.0278 13.8186 22.9044C14.4184 23.1467 15.1912 23.3081 16.0332 23.3081C17.1405 23.3081 18.121 23.0313 18.7669 22.6507C19.4013 22.2585 19.609 21.8778 19.609 21.5779C19.609 21.278 19.4013 20.8974 18.7669 20.5052C18.121 20.1246 17.1405 19.8477 16.0332 19.8477ZM44.9968 21.4857C44.6854 22.8929 46.3579 24.1386 47.3614 24.6808C48.3419 25.1883 49.3339 25.3959 50.0836 25.3613C50.8218 25.3152 51.1909 25.073 51.3294 24.8077C51.4678 24.5424 51.4678 24.104 51.0756 23.4696C50.6834 22.8352 49.9452 22.1316 48.9647 21.6125C48.215 21.255 45.6312 20.3322 44.9968 21.4857ZM10.1044 21.3819C9.42384 21.3703 8.59334 21.5203 7.76285 21.8663C6.74779 22.2931 5.9519 22.9275 5.51358 23.5273C5.07526 24.1386 5.02912 24.5654 5.14447 24.8423C5.25982 25.1191 5.60586 25.3959 6.34408 25.5113C7.07076 25.6151 8.08582 25.4882 9.1124 25.0499C10.139 24.6231 10.9349 23.9887 11.3732 23.3889C11.8115 22.7776 11.8577 22.3508 11.7423 22.0739C11.2463 21.5087 10.7619 21.3819 10.1044 21.3819ZM29.4827 22.8929C29.1251 23.5619 28.5253 24.0233 27.8217 24.2886C28.5599 24.7384 29.1482 25.4075 29.3327 26.2726C29.5865 27.4837 28.9867 28.6256 28.0985 29.4446C27.2103 30.2751 25.9992 30.8749 24.5804 31.1633C23.1732 31.4632 21.8121 31.4055 20.6702 31.0133C19.5282 30.6211 18.5247 29.8137 18.2709 28.6141C18.0172 27.403 18.6055 26.261 19.4936 25.4421C20.3126 24.6808 21.4199 24.104 22.6887 23.7926C22.1812 23.5619 21.7198 23.2851 21.3046 22.9736C20.9701 23.5734 20.4395 24.0579 19.8281 24.427C18.79 25.0499 17.4751 25.3844 16.0332 25.3844C14.8913 25.3844 13.8301 25.1768 12.9188 24.7731C12.2152 25.6843 11.1656 26.4456 9.91983 26.9646C8.70869 27.4722 7.49755 27.6913 6.39022 27.599C5.9519 28.4641 5.07526 29.0294 4.12942 29.3293C2.96441 29.6868 1.60332 29.6984 0.207624 29.3523C0.17302 29.3408 0.138416 29.3408 0.115347 29.3293V34.6583C0.438318 34.4853 0.795893 34.3584 1.15347 34.2776C1.54565 34.1854 1.9609 34.1392 2.38768 34.1277V34.1046C2.05317 32.9165 2.58377 31.74 3.41427 30.8634C4.24476 29.9867 5.4213 29.3062 6.817 28.9255C8.15041 28.5795 9.48151 28.4988 10.7273 28.8333C11.8923 29.1562 12.9535 29.8945 13.2764 31.0825C13.6109 32.2706 13.0919 33.4471 12.2498 34.3238C11.4193 35.2004 10.2428 35.8694 8.84711 36.2616C8.63948 36.3193 8.42032 36.3654 8.20116 36.4116C9.06165 37.3805 9.56226 38.9146 9.27389 39.895C8.89324 41.06 7.80898 41.7521 6.63245 42.0289C5.44437 42.3058 4.09481 42.2135 2.72219 41.7752C1.71867 41.4522 0.830498 40.9793 0.115347 40.3795V48.8645C0.115347 51.4343 2.19855 53.5175 4.76832 53.5175H9.02013C8.55874 52.2833 9.46998 52.2025 8.18963 51.6604C6.8516 51.1183 5.76734 50.2993 5.04066 49.3304C4.31397 48.3615 3.94486 47.1273 4.40625 45.9853C4.87917 44.8549 6.00957 44.2436 7.20918 44.0591C8.40879 43.886 9.75835 44.0706 11.0848 44.6242C12.4229 45.1664 13.5071 45.9853 14.2338 46.9543C14.4991 47.3118 14.7183 47.6925 14.8682 48.0962C15.8371 48.027 16.7599 48.1423 17.5789 48.4192C18.7208 48.8113 19.7243 49.6188 19.9781 50.8184C20.1857 51.8104 19.8281 52.7562 19.2053 53.5175H48.7456C48.0189 52.6755 47.5921 51.6027 47.892 50.4954C48.215 49.3073 49.2647 48.5691 50.4297 48.2346C51.5947 47.9001 52.9558 47.9232 54.3399 48.3038C54.616 48.385 54.9051 48.1814 54.9051 47.8937V36.8153C53.6363 37.0229 52.4136 36.9422 51.3755 36.5846C50.2336 36.1924 49.23 35.385 48.9763 34.1854C48.7225 32.9742 49.3108 31.8323 50.199 31.0133C51.7215 29.8483 53.1749 29.237 54.9051 29.1332V29.0063C53.1749 29.0294 50.7642 28.3719 49.726 27.4376C48.6533 27.4145 47.5114 27.1031 46.3925 26.5148C45.1583 25.8688 44.1894 25.0037 43.555 24.0118C42.9436 24.4731 42.2285 24.8538 41.4441 25.1422C40.083 25.6382 38.7335 25.7766 37.5454 25.5459C36.5534 25.3498 35.6191 24.8653 35.0885 24.0348C34.6502 24.104 34.1773 24.1386 33.7044 24.1386C32.2625 24.1386 30.9476 23.8041 29.9094 23.1813C29.7595 23.089 29.6211 22.9967 29.4827 22.8929ZM53.3595 23.5734C53.5786 24.8538 53.3941 25.8688 52.4367 26.6532C53.3364 26.907 54.0746 26.9877 54.9051 26.93V23.5158C54.3861 23.4812 53.8324 23.4927 53.3595 23.5734ZM0 23.7811V27.1146C1.08887 27.4837 2.44305 27.6567 3.50655 27.3453C3.88719 27.2299 4.14095 27.0915 4.31397 26.93C3.48232 26.3187 3.01747 25.5113 3.01055 24.5424C2.58377 24.3117 2.08778 24.1156 1.53411 23.9772C1.00352 23.8503 0.472922 23.7811 0 23.7811ZM23.4385 25.7535C22.3542 25.9842 21.4545 26.4571 20.9009 26.9531C20.3587 27.4722 20.2434 27.8874 20.3011 28.1873C20.3587 28.4757 20.6471 28.8102 21.3507 29.0524C22.0543 29.2946 23.0694 29.3639 24.1536 29.1332C25.2379 28.9025 26.1376 28.4295 26.6913 27.9336C27.2334 27.4145 27.3603 26.9992 27.3026 26.7109C27.2334 26.411 26.9566 26.088 26.253 25.8342C25.2956 25.5574 24.3382 25.5574 23.4385 25.7535ZM7.37067 30.921C6.29794 31.2209 5.4213 31.7515 4.91378 32.2821C4.40625 32.8358 4.30244 33.251 4.38318 33.5509C4.46392 33.8393 4.76383 34.1392 5.49051 34.3584C6.19413 34.5545 7.22071 34.5545 8.29344 34.2546C9.35463 33.9662 10.2428 33.4356 10.7503 32.8935C11.2579 32.3513 11.3617 31.9246 11.2809 31.6362C11.2002 31.3478 10.8887 31.0364 10.1736 30.8288C9.2612 30.5981 8.23231 30.6788 7.37067 30.921ZM37.4762 30.9326C38.226 30.9441 38.9296 31.0595 39.5755 31.2786C40.729 31.6823 41.7325 32.4782 41.9863 33.6894C42.1016 34.2546 42.0324 34.8198 41.8248 35.3388C42.9667 35.731 43.9356 36.3308 44.6623 37.069C45.4928 37.9457 46.0234 39.1222 45.7004 40.3103C45.3775 41.4983 44.3278 42.2481 43.1628 42.5711C41.9978 42.9056 40.6482 42.8825 39.2525 42.5019C37.8568 42.1328 36.6803 41.4637 35.8383 40.5871C35.3307 40.0565 34.927 39.4221 34.7771 38.73C34.2696 38.6839 33.7736 38.5801 33.3237 38.4186C32.1818 38.0264 31.1783 37.2305 30.9245 36.0194C30.6707 34.8082 31.2705 33.6778 32.1587 32.8473C33.0353 32.0284 34.258 31.4286 35.6653 31.1287C36.2881 31.0018 36.8879 30.9326 37.4762 30.9326ZM54.9051 31.2094C54.6514 31.2325 54.3976 31.2671 54.1438 31.3248C53.0596 31.5554 52.1599 32.0284 51.6062 32.5244C51.0641 33.0434 50.9487 33.4587 51.0064 33.7586C51.0641 34.0469 51.3524 34.3814 52.0445 34.6237C52.7597 34.8659 53.7747 34.9351 54.859 34.7044C54.8705 34.7044 54.8936 34.6929 54.9051 34.6929V31.2094ZM36.092 33.1588C35.0193 33.3895 34.1081 33.8624 33.5544 34.3699C33.0238 34.8774 32.8969 35.2927 32.9546 35.5926C33.0123 35.881 33.3006 36.2155 34.0043 36.4692C34.7079 36.7115 35.7229 36.7807 36.8072 36.55C37.8914 36.3193 38.8027 35.8464 39.3448 35.3388C39.887 34.8198 40.0138 34.4045 39.9562 34.1161C39.887 33.8278 39.6101 33.4933 38.9065 33.2395C37.9491 32.9627 36.9917 32.9627 36.092 33.1588ZM20.7048 33.8162C22.112 34.1161 23.3231 34.7275 24.2113 35.558C25.0879 36.3885 25.6877 37.5304 25.4225 38.73C25.1572 39.9412 24.1536 40.7371 23.0002 41.1292C21.8582 41.5099 20.4971 41.5676 19.0899 41.2561C17.6827 40.9562 16.4715 40.3449 15.5834 39.5259C14.7067 38.6954 14.1069 37.5535 14.3722 36.3423C14.6375 35.1312 15.641 34.3353 16.7945 33.9547C18.121 33.5394 19.4475 33.5625 20.7048 33.8162ZM17.452 35.9156C16.7484 36.1578 16.46 36.4923 16.4023 36.7807C16.3331 37.0806 16.46 37.4958 17.0021 38.0033C17.5443 38.5224 18.444 38.9953 19.5282 39.226C20.6125 39.4682 21.6275 39.399 22.3427 39.1683C23.0463 38.9146 23.3231 38.5916 23.3923 38.2917C23.45 38.0033 23.3347 37.5881 22.7925 37.069C22.2389 36.5615 21.3392 36.077 20.2664 35.8464C19.3437 35.6733 18.3402 35.6387 17.452 35.9156ZM1.61486 36.2962C0.899706 36.4692 0.576734 36.7691 0.484457 37.0575C0.392179 37.3459 0.472922 37.7611 0.957379 38.3378C1.45337 38.8915 2.30694 39.4567 3.35659 39.8027C4.41779 40.1373 5.43284 40.1834 6.15952 40.0104C6.88621 39.8374 7.19764 39.5374 7.28992 39.2491C7.3822 38.9723 7.30146 38.5455 6.817 37.9687C6.32101 37.4151 5.47898 36.8499 4.41779 36.5038C3.46387 36.2385 2.53071 36.1116 1.61486 36.2962ZM40.4752 37.1036C39.2871 37.8995 38.1567 38.4301 36.9456 38.6377C37.5569 39.6182 38.8834 40.2526 39.7947 40.5064C40.8674 40.7947 41.8825 40.7832 42.6091 40.5871C43.3243 40.368 43.6242 40.0565 43.7049 39.7681C43.7741 39.4798 43.6819 39.053 43.1628 38.5109C42.2746 37.7957 41.4095 37.3113 40.4752 37.1036ZM34.2811 41.1292C35.423 41.5214 36.4265 42.3173 36.6803 43.5285C36.9341 44.7396 36.3343 45.8815 35.4461 46.7005C34.5695 47.5195 33.3468 48.1193 31.9395 48.4192C30.5208 48.7191 29.1712 48.6614 28.0293 48.2692C26.8758 47.8655 25.8723 47.0696 25.6185 45.8585C25.3648 44.6589 25.9646 43.5169 26.8528 42.6864C27.7409 41.8675 28.9521 41.2677 30.3593 40.9678C31.6397 40.7025 33.0815 40.714 34.2811 41.1292ZM30.7976 42.9979C29.7134 43.2285 28.8021 43.7015 28.26 44.209C27.7179 44.7281 27.591 45.1433 27.6486 45.4317C27.7179 45.7316 27.9947 46.0546 28.6983 46.3083C29.4019 46.5505 30.4285 46.6198 31.5128 46.3891C32.5855 46.1584 33.4967 45.6854 34.0504 45.1779C34.581 44.6704 34.7079 44.2551 34.6502 43.9552C34.5925 43.6669 34.3042 43.3324 33.6005 43.0786C32.6662 42.8133 31.7204 42.8133 30.7976 42.9979ZM7.52062 46.1122C6.7824 46.2276 6.44789 46.5044 6.33254 46.7812C6.2172 47.0581 6.26334 47.4849 6.70165 48.0962C7.15151 48.696 7.95894 49.3189 8.97399 49.7457C10.0121 50.1609 11.0156 50.2762 11.7654 50.1724C12.4921 50.0571 12.8381 49.7803 12.9535 49.5034C13.0573 49.2266 13.0111 48.7998 12.5728 48.1885C12.123 47.5887 11.3271 46.9658 10.3005 46.539C9.3604 46.216 8.43993 45.9969 7.52062 46.1122ZM52.2637 50.0917C51.5139 50.1032 50.1298 50.207 49.8991 51.0375C49.8875 52.4794 51.7446 53.3214 52.8519 53.6328C53.9859 53.6328 54.9051 52.7136 54.9051 51.5797V50.7146C54.0631 50.3224 53.1518 50.1148 52.2637 50.0917ZM14.9144 50.184C14.4184 51.3259 13.0342 52.0641 12.0653 52.2256C11.7192 52.2717 11.3617 52.2948 10.9926 52.2833C10.7734 52.9869 11.6385 53.4714 12.1114 53.6328H15.0182C16.0101 53.4021 16.8291 52.9408 17.3366 52.4794C17.8788 51.9603 18.0172 51.5451 17.948 51.2567C17.8903 50.9568 17.6019 50.6338 16.8983 50.3801C16.1832 50.1955 15.5834 50.1032 14.9144 50.184Z" fill="#FE8304"/>
</svg>
