<svg width="30" height="30" viewBox="0 0 30 30" fill="none" xmlns="http://www.w3.org/2000/svg">
<path d="M25.6178 10.6178V4.38217H19.3954L14.9735 0L10.6178 4.38217H4.38217V10.6178L0 14.9735L4.38217 19.3954V25.6178H10.6178L14.9735 30L19.3954 25.6178H25.6178V19.3954L30 14.9735L25.6178 10.6178ZM10.7767 8.42012C12.0741 8.42012 13.12 9.46602 13.12 10.7767C13.12 11.3982 12.8731 11.9942 12.4337 12.4337C11.9942 12.8731 11.3982 13.12 10.7767 13.12C9.46602 13.12 8.42012 12.0741 8.42012 10.7767C8.42012 9.46602 9.46602 8.42012 10.7767 8.42012ZM19.2365 21.5931C17.9391 21.5931 16.8932 20.534 16.8932 19.2365C16.8932 18.615 17.1401 18.019 17.5796 17.5796C18.019 17.1401 18.615 16.8932 19.2365 16.8932C20.534 16.8932 21.5931 17.9391 21.5931 19.2365C21.5931 19.8615 21.3448 20.4609 20.9029 20.9029C20.4609 21.3448 19.8615 21.5931 19.2365 21.5931ZM10.3398 21.6328L8.35393 19.647L19.647 8.35393L21.6328 10.3398L10.3398 21.6328Z" fill="#FE8304"/>
</svg>
