<svg width="35" height="41" viewBox="0 0 35 41" fill="none" xmlns="http://www.w3.org/2000/svg">
<mask id="mask0_1560_3514" style="mask-type:luminance" maskUnits="userSpaceOnUse" x="0" y="0" width="35" height="41">
<path d="M34.7285 0H0V40.9756H34.7285V0Z" fill="white"/>
</mask>
<g mask="url(#mask0_1560_3514)">
<path d="M9.86682 39.5863L10.577 35.0755L8.99509 35.0388H1.44141L6.69081 1.75416C6.70712 1.65368 6.76007 1.55999 6.83747 1.49345C6.91487 1.42692 7.01398 1.39026 7.11719 1.39026H19.8537C24.0821 1.39026 27.0001 2.27014 28.5234 4.00681C29.2377 4.82151 29.6927 5.6729 29.9126 6.60982C30.1434 7.59289 30.1477 8.76741 29.922 10.1999L29.9058 10.3045V11.2224L30.62 11.627C31.2216 11.9461 31.6996 12.3114 32.0661 12.7296C32.6773 13.4262 33.0723 14.3115 33.2393 15.3611C33.4118 16.4406 33.3549 17.7251 33.0723 19.1793C32.7465 20.8522 32.2195 22.3092 31.5081 23.5014C30.8536 24.5999 30.0199 25.511 29.0299 26.217C28.085 26.8878 26.962 27.397 25.6925 27.7229C24.4623 28.0433 23.0596 28.2049 21.5212 28.2049H20.53C19.8212 28.2049 19.1327 28.4603 18.5923 28.9178C18.0505 29.3848 17.6921 30.023 17.5821 30.721L17.5074 31.1271L16.2528 39.0772L16.1957 39.3692C16.1808 39.4614 16.155 39.5077 16.117 39.5388C16.083 39.5672 16.0341 39.5863 15.9866 39.5863H9.86682Z" fill="#253B80"/>
<path d="M31.2951 10.4108C31.257 10.6538 31.2137 10.9023 31.1648 11.1576C29.4851 19.7812 23.7387 22.7603 16.3996 22.7603H12.6628C11.7653 22.7603 11.009 23.4121 10.8691 24.2974L8.95588 36.4312L8.41412 39.8706C8.32312 40.4517 8.7712 40.9758 9.35781 40.9758H15.9854C16.7703 40.9758 17.437 40.4056 17.5605 39.6316L17.6257 39.2947L18.8736 31.3759L18.9537 30.9413C19.0759 30.1648 19.7439 29.5943 20.5288 29.5943H21.52C27.9412 29.5943 32.968 26.9873 34.4371 19.4431C35.0509 16.2916 34.7331 13.6601 33.1091 11.8093C32.6177 11.2513 32.0079 10.7883 31.2951 10.4108Z" fill="#179BD7"/>
<path d="M29.5381 9.71006C29.2814 9.63539 29.0168 9.5675 28.745 9.50641C28.4721 9.44665 28.1925 9.39369 27.9046 9.34754C26.8971 9.18458 25.7932 9.10718 24.6105 9.10718H14.6277C14.3819 9.10718 14.1483 9.16286 13.9392 9.26334C13.4789 9.48466 13.1367 9.92054 13.0539 10.4542L10.9302 23.905L10.8691 24.2974C11.009 23.412 11.7653 22.7603 12.6628 22.7603H16.3996C23.7388 22.7603 29.4852 19.7798 31.1649 11.1575C31.215 10.9023 31.2571 10.6538 31.2952 10.4107C30.8701 10.1853 30.41 9.99251 29.9143 9.82821C29.7919 9.78746 29.6658 9.7481 29.5381 9.71006Z" fill="#222D65"/>
<path d="M13.0543 10.454C13.1371 9.92039 13.4793 9.48452 13.9396 9.26456C14.1501 9.16408 14.3822 9.10839 14.628 9.10839H24.6109C25.7936 9.10839 26.8975 9.18579 27.905 9.34876C28.1929 9.39491 28.4726 9.44787 28.7455 9.50762C29.017 9.56872 29.2819 9.63661 29.5386 9.71128C29.6661 9.74932 29.7924 9.78868 29.9159 9.82806C30.4116 9.99236 30.872 10.1865 31.2968 10.4106C31.7965 7.22372 31.2928 5.05389 29.5696 3.08908C27.6701 0.926049 24.2415 0 19.8544 0H7.11781C6.22161 0 5.45715 0.651765 5.31866 1.53844L0.0135633 35.1653C-0.0909906 35.8306 0.422274 36.431 1.09305 36.431H8.9563L10.9306 23.9048L13.0543 10.454Z" fill="#253B80"/>
</g>
</svg>
