<svg width="23" height="18" viewBox="0 0 23 18" fill="none" xmlns="http://www.w3.org/2000/svg">
<path d="M19.5501 2.57143C19.5501 1.15714 18.5151 0 17.2501 0H13.8001V2.57143H17.2501V5.97857L13.2481 11.5714H9.20006V5.14286H4.60003C2.05851 5.14286 0 7.44429 0 10.2857V14.1429H2.30002C2.30002 16.2771 3.84103 18 5.75004 18C7.65905 18 9.20006 16.2771 9.20006 14.1429H14.3521L19.5501 6.87857V2.57143ZM5.75004 15.4286C5.11754 15.4286 4.60003 14.85 4.60003 14.1429H6.90005C6.90005 14.85 6.38254 15.4286 5.75004 15.4286Z" fill="#FE8304"/>
<path d="M3.44922 1.28552H9.19926V3.85695H3.44922V1.28552ZM19.5493 10.2855C17.6403 10.2855 16.0993 12.0084 16.0993 14.1427C16.0993 16.277 17.6403 17.9998 19.5493 17.9998C21.4583 17.9998 22.9994 16.277 22.9994 14.1427C22.9994 12.0084 21.4583 10.2855 19.5493 10.2855ZM19.5493 15.4284C18.9168 15.4284 18.3993 14.8498 18.3993 14.1427C18.3993 13.4355 18.9168 12.857 19.5493 12.857C20.1818 12.857 20.6993 13.4355 20.6993 14.1427C20.6993 14.8498 20.1818 15.4284 19.5493 15.4284Z" fill="#FE8304"/>
</svg>
