<svg width="43" height="33" viewBox="0 0 43 33" fill="none" xmlns="http://www.w3.org/2000/svg">
<path d="M1 4.875C1 2.7349 2.83563 1 5.1 1H37.9C40.1644 1 42 2.7349 42 4.875V16.5V28.125C42 30.2652 40.1644 32 37.9 32H5.1C2.83563 32 1 30.2652 1 28.125V16.5V4.875Z" fill="#FE8304" stroke="#FFE0C0" stroke-width="1.56093" stroke-linecap="round" stroke-linejoin="round"/>
<path d="M1 8.75H42H1Z" fill="#FE8304"/>
<path d="M1 8.75H42" stroke="#FFE0C0" stroke-width="1.56093" stroke-linecap="round" stroke-linejoin="round"/>
<path d="M1 16.5H15.35C15.35 18.4375 16.58 22.3125 21.5 22.3125C26.42 22.3125 27.65 18.4375 27.65 16.5H42" fill="#FE8304"/>
<path d="M1 16.5H15.35C15.35 18.4375 16.58 22.3125 21.5 22.3125C26.42 22.3125 27.65 18.4375 27.65 16.5H42" stroke="#FFE0C0" stroke-width="1.56093" stroke-linecap="round" stroke-linejoin="round"/>
</svg>
