<svg width="37" height="37" viewBox="0 0 37 37" fill="none" xmlns="http://www.w3.org/2000/svg">
<path d="M16.8814 1.97119C17.4576 0.445147 19.631 0.445147 20.2072 1.97121L23.9242 12.3384C24.1842 13.0269 24.8468 13.483 25.5871 13.483H34.7207C36.4073 13.483 37.144 15.5989 35.818 16.6338L29.3178 22.5232C28.7193 22.9902 28.487 23.7843 28.7403 24.4972L31.1134 34.6282C31.6912 36.254 29.8189 37.6527 28.4065 36.6505L19.5765 31.0112C18.959 30.5731 18.1295 30.5731 17.512 31.0112L8.68209 36.6505C7.26955 37.6527 5.39742 36.254 5.97515 34.6282L8.34821 24.4972C8.60155 23.7843 8.36928 22.9902 7.77073 22.5232L1.2706 16.6338C-0.0555873 15.5989 0.68125 13.483 2.36781 13.483H11.5014C12.2417 13.483 12.9043 13.0269 13.1643 12.3384L16.8814 1.97119Z" fill="#FFE0C0"/>
</svg>
