<svg width="38" height="39" viewBox="0 0 38 39" fill="none" xmlns="http://www.w3.org/2000/svg">
<path d="M17.2344 2.97119C17.8106 1.44515 19.984 1.44515 20.5602 2.97121L24.2772 13.3384C24.5372 14.0269 25.1998 14.483 25.9401 14.483H35.0737C36.7603 14.483 37.4971 16.5989 36.171 17.6338L29.6708 23.5232C29.0723 23.9902 28.84 24.7843 29.0934 25.4972L31.4664 35.6282C32.0442 37.254 30.172 38.6527 28.7596 37.6505L19.9296 32.0112C19.3121 31.5731 18.4825 31.5731 17.865 32.0112L9.03511 37.6505C7.62258 38.6527 5.75044 37.254 6.32817 35.6282L8.70124 25.4972C8.95458 24.7843 8.7223 23.9902 8.12376 23.5232L1.62363 17.6338C0.29744 16.5989 1.03428 14.483 2.72084 14.483H11.8544C12.5947 14.483 13.2573 14.0269 13.5173 13.3384L17.2344 2.97119Z" fill="#FE8304" stroke="#FE8304" stroke-width="1.79596" stroke-linecap="round" stroke-linejoin="round"/>
</svg>
