<svg width="18" height="18" viewBox="0 0 18 18" fill="none" xmlns="http://www.w3.org/2000/svg">
<path d="M8.29096 1.51217C8.5488 0.829277 9.52137 0.829277 9.77921 1.51217L11.4426 6.15141C11.5589 6.45948 11.8554 6.66358 12.1867 6.66358H16.2739C17.0286 6.66358 17.3583 7.61045 16.7649 8.07356L13.8561 10.709C13.5883 10.918 13.4844 11.2733 13.5977 11.5923L14.6596 16.1259C14.9182 16.8534 14.0804 17.4793 13.4484 17.0308L9.49702 14.5073C9.22069 14.3113 8.84947 14.3113 8.57315 14.5073L4.62186 17.0308C3.98976 17.4793 3.152 16.8534 3.41053 16.1259L4.47245 11.5923C4.58582 11.2733 4.48188 10.918 4.21403 10.709L1.30529 8.07356C0.711831 7.61045 1.04156 6.66358 1.79628 6.66358H5.88346C6.21474 6.66358 6.51126 6.45948 6.62758 6.15141L8.29096 1.51217Z" fill="#FE8304" stroke="#FE8304" stroke-width="0.803675" stroke-linecap="round" stroke-linejoin="round"/>
</svg>
