<svg width="217" height="217" viewBox="0 0 217 217" fill="none" xmlns="http://www.w3.org/2000/svg">
<path d="M217 108.5C217 168.423 168.423 217 108.5 217C48.5771 217 0 168.423 0 108.5C0 48.5771 48.5771 0 108.5 0C168.423 0 217 48.5771 217 108.5Z" fill="#FFD1A1"/>
<path d="M217 108.5C217 168.423 168.423 217 108.5 217C48.5771 217 0 168.423 0 108.5C0 48.5771 48.5771 0 108.5 0C168.423 0 217 48.5771 217 108.5Z" fill="#FFD1A1"/>
<path d="M178.134 109.04C178.134 147.2 147.2 178.134 109.04 178.134C70.88 178.134 39.9453 147.2 39.9453 109.04C39.9453 70.88 70.88 39.9453 109.04 39.9453C147.2 39.9453 178.134 70.88 178.134 109.04Z" fill="white"/>
<path d="M178.134 109.04C178.134 147.2 147.2 178.134 109.04 178.134C70.88 178.134 39.9453 147.2 39.9453 109.04C39.9453 70.88 70.88 39.9453 109.04 39.9453C147.2 39.9453 178.134 70.88 178.134 109.04Z" fill="white"/>
<path d="M108.908 27.0085C130.629 27.0085 151.46 35.6372 166.819 50.9962C182.178 66.3552 190.807 87.1865 190.807 108.907C190.807 130.628 182.178 151.46 166.819 166.819C151.46 182.178 130.629 190.806 108.908 190.806C87.1867 190.806 66.3554 182.178 50.9964 166.819C35.6374 151.46 27.0088 130.628 27.0088 108.907C27.0088 87.1865 35.6374 66.3552 50.9964 50.9962C66.3554 35.6372 87.1867 27.0085 108.908 27.0085ZM98.7054 125.065L80.5121 106.86C79.8599 106.208 79.0856 105.69 78.2335 105.337C77.3813 104.984 76.4679 104.803 75.5456 104.803C74.6232 104.803 73.7098 104.984 72.8577 105.337C72.0055 105.69 71.2312 106.208 70.579 106.86C69.2618 108.177 68.5218 109.964 68.5218 111.827C68.5218 113.689 69.2618 115.476 70.579 116.793L93.7447 139.959C94.3951 140.614 95.1688 141.135 96.0212 141.49C96.8736 141.845 97.7878 142.027 98.7113 142.027C99.6347 142.027 100.549 141.845 101.401 141.49C102.254 141.135 103.027 140.614 103.678 139.959L151.647 91.9777C152.308 91.3282 152.834 90.5543 153.194 89.7005C153.555 88.8468 153.742 87.9302 153.747 87.0035C153.751 86.0769 153.572 85.1585 153.219 84.3015C152.867 83.4444 152.348 82.6656 151.694 82.01C151.039 81.3543 150.26 80.8348 149.404 80.4815C148.547 80.1281 147.629 79.9478 146.702 79.951C145.776 79.9542 144.859 80.1409 144.005 80.5002C143.151 80.8595 142.376 81.3844 141.726 82.0446L98.7054 125.065Z" fill="#FE8304"/>
<path d="M108.908 27.0085C130.629 27.0085 151.46 35.6372 166.819 50.9962C182.178 66.3552 190.807 87.1865 190.807 108.907C190.807 130.628 182.178 151.46 166.819 166.819C151.46 182.178 130.629 190.806 108.908 190.806C87.1867 190.806 66.3554 182.178 50.9964 166.819C35.6374 151.46 27.0088 130.628 27.0088 108.907C27.0088 87.1865 35.6374 66.3552 50.9964 50.9962C66.3554 35.6372 87.1867 27.0085 108.908 27.0085ZM98.7054 125.065L80.5121 106.86C79.8599 106.208 79.0856 105.69 78.2335 105.337C77.3813 104.984 76.4679 104.803 75.5456 104.803C74.6232 104.803 73.7098 104.984 72.8577 105.337C72.0055 105.69 71.2312 106.208 70.579 106.86C69.2618 108.177 68.5218 109.964 68.5218 111.827C68.5218 113.689 69.2618 115.476 70.579 116.793L93.7447 139.959C94.3951 140.614 95.1688 141.135 96.0212 141.49C96.8736 141.845 97.7878 142.027 98.7113 142.027C99.6347 142.027 100.549 141.845 101.401 141.49C102.254 141.135 103.027 140.614 103.678 139.959L151.647 91.9777C152.308 91.3282 152.834 90.5543 153.194 89.7005C153.555 88.8468 153.742 87.9302 153.747 87.0035C153.751 86.0769 153.572 85.1585 153.219 84.3015C152.867 83.4444 152.348 82.6656 151.694 82.01C151.039 81.3543 150.26 80.8348 149.404 80.4815C148.547 80.1281 147.629 79.9478 146.702 79.951C145.776 79.9542 144.859 80.1409 144.005 80.5002C143.151 80.8595 142.376 81.3844 141.726 82.0446L98.7054 125.065Z" stroke="#FEA243"/>
</svg>
