<svg width="53" height="38" viewBox="0 0 53 38" fill="none" xmlns="http://www.w3.org/2000/svg">
<path d="M9.5 0H52.25V28.5H9.5V0ZM30.875 7.125C32.7647 7.125 34.5769 7.87567 35.9131 9.21186C37.2493 10.5481 38 12.3603 38 14.25C38 16.1397 37.2493 17.9519 35.9131 19.2881C34.5769 20.6243 32.7647 21.375 30.875 21.375C28.9853 21.375 27.1731 20.6243 25.8369 19.2881C24.5007 17.9519 23.75 16.1397 23.75 14.25C23.75 12.3603 24.5007 10.5481 25.8369 9.21186C27.1731 7.87567 28.9853 7.125 30.875 7.125ZM19 4.75C19 6.00978 18.4996 7.21796 17.6088 8.10876C16.718 8.99955 15.5098 9.5 14.25 9.5V19C15.5098 19 16.718 19.5004 17.6088 20.3912C18.4996 21.282 19 22.4902 19 23.75H42.75C42.75 22.4902 43.2504 21.282 44.1412 20.3912C45.032 19.5004 46.2402 19 47.5 19V9.5C46.2402 9.5 45.032 8.99955 44.1412 8.10876C43.2504 7.21796 42.75 6.00978 42.75 4.75H19ZM0 9.5H4.75V33.25H42.75V38H0V9.5Z" fill="#FE8304"/>
</svg>
