<svg width="29" height="24" viewBox="0 0 29 24" fill="none" xmlns="http://www.w3.org/2000/svg">
<path d="M1.55566 4.03025C1.55566 2.59097 2.71517 1.42419 4.14549 1.42419H24.8641C26.2945 1.42419 27.454 2.59097 27.454 4.03025V11.8484V19.6666C27.454 21.1059 26.2945 22.2727 24.8641 22.2727H4.14549C2.71517 22.2727 1.55566 21.1059 1.55566 19.6666V11.8484V4.03025Z" fill="#FE8304" stroke="#FEF8F2" stroke-width="1.79296" stroke-linecap="round" stroke-linejoin="round"/>
<path d="M1.55566 6.63623H27.454H1.55566Z" fill="#FE8304"/>
<path d="M1.55566 6.63623H27.454" stroke="#FEF8F2" stroke-width="1.79296" stroke-linecap="round" stroke-linejoin="round"/>
<path d="M1.55566 11.8484H10.6201C10.6201 13.1514 11.397 15.7575 14.5048 15.7575C17.6126 15.7575 18.3896 13.1514 18.3896 11.8484H27.454" fill="#FE8304"/>
<path d="M1.55566 11.8484H10.6201C10.6201 13.1514 11.397 15.7575 14.5048 15.7575C17.6126 15.7575 18.3896 13.1514 18.3896 11.8484H27.454" stroke="#FEF8F2" stroke-width="1.79296" stroke-linecap="round" stroke-linejoin="round"/>
</svg>
