<svg width="12" height="13" viewBox="0 0 12 13" fill="none" xmlns="http://www.w3.org/2000/svg">
<path d="M11.1518 3.01599L7.99832 6.4679L11.1518 9.91982C11.2795 10.0597 11.3808 10.2258 11.45 10.4086C11.5191 10.5914 11.5547 10.7873 11.5547 10.9851C11.5547 11.183 11.5191 11.3789 11.45 11.5617C11.3808 11.7445 11.2795 11.9105 11.1518 12.0504C11.0241 12.1903 10.8724 12.3013 10.7055 12.377C10.5386 12.4527 10.3598 12.4917 10.1791 12.4917C9.99847 12.4917 9.8196 12.4527 9.65271 12.377C9.48581 12.3013 9.33417 12.1903 9.20644 12.0504L6.05469 8.59664L2.90294 12.0504C2.64497 12.333 2.29508 12.4917 1.93026 12.4917C1.56544 12.4917 1.21555 12.333 0.957583 12.0504C0.699613 11.7679 0.554688 11.3847 0.554688 10.9851C0.554688 10.5856 0.699613 10.2024 0.957583 9.91982L4.11105 6.4679L0.957583 3.01599C0.699613 2.73345 0.554688 2.35024 0.554688 1.95067C0.554688 1.5511 0.699613 1.1679 0.957583 0.885358C1.21555 0.60282 1.56544 0.444092 1.93026 0.444092C2.29508 0.444092 2.64497 0.60282 2.90294 0.885358L6.05469 4.33916L9.20644 0.885358C9.33417 0.745459 9.48581 0.634485 9.65271 0.558773C9.8196 0.48306 9.99847 0.444092 10.1791 0.444092C10.3598 0.444092 10.5386 0.48306 10.7055 0.558773C10.8724 0.634485 11.0241 0.745459 11.1518 0.885358C11.2795 1.02526 11.3808 1.19134 11.45 1.37413C11.5191 1.55692 11.5547 1.75282 11.5547 1.95067C11.5547 2.14852 11.5191 2.34443 11.45 2.52722C11.3808 2.71 11.2795 2.87609 11.1518 3.01599Z" fill="white"/>
</svg>
