<svg width="23" height="78" viewBox="0 0 23 78" fill="none" xmlns="http://www.w3.org/2000/svg">
<path d="M11 25V44.5" stroke="#FE8304" stroke-width="2" stroke-linecap="round" stroke-dasharray="4 4"/>
<ellipse cx="11.4996" cy="11.5" rx="11.4996" ry="11.5" fill="#FE8304"/>
<ellipse cx="11.4521" cy="11.4518" rx="6.36225" ry="6.36246" fill="white"/>
<path d="M10.5 48C5.24786 48 1 52.5513 1 58.1786C1 65.8125 10.5 77.0816 10.5 77.0816C10.5 77.0816 20 65.8125 20 58.1786C20 52.5513 15.7521 48 10.5 48ZM10.5 61.8138C8.62714 61.8138 7.10714 60.1852 7.10714 58.1786C7.10714 56.1719 8.62714 54.5434 10.5 54.5434C12.3729 54.5434 13.8929 56.1719 13.8929 58.1786C13.8929 60.1852 12.3729 61.8138 10.5 61.8138Z" fill="#FE8304"/>
</svg>
