<svg width="68" height="69" viewBox="0 0 68 69" fill="none" xmlns="http://www.w3.org/2000/svg">
<path d="M25.6392 8.57571L30.8001 3.34303C31.6471 2.48308 32.7956 2 33.9931 2C35.1907 2 36.3392 2.48308 37.1862 3.34303L42.3563 8.58035C43.2021 9.44099 44.3498 9.9253 45.547 9.92683H53.6747C54.8725 9.92683 56.0213 10.4101 56.8683 11.2704C57.7153 12.1307 58.1911 13.2975 58.1911 14.5141V22.7694C58.1914 23.9848 58.6665 25.1504 59.5122 26.0102L64.6777 31.2522C65.5244 32.1124 66 33.279 66 34.4954C66 35.7117 65.5244 36.8783 64.6777 37.7385L59.5168 42.9851C58.6665 43.8441 58.1911 45.0095 58.1911 46.2259V54.4812C58.1911 55.6979 57.7153 56.8647 56.8683 57.7249C56.0213 58.5852 54.8725 59.0685 53.6747 59.0685H45.547C44.3504 59.0688 43.2028 59.5514 42.3563 60.4104L37.1953 65.657C36.3484 66.5169 35.1998 67 34.0023 67C32.8047 67 31.6562 66.5169 30.8093 65.657L25.6437 60.415C24.7981 59.5514 23.6507 59.0685 22.453 59.0685H14.3253C11.8294 59.0685 9.80889 57.0163 9.80889 54.4812V46.2259C9.80899 45.6241 9.69238 45.0281 9.4657 44.4721C9.23903 43.916 8.90673 43.4107 8.48779 42.9851L3.32227 37.7431C2.47562 36.8829 2 35.7164 2 34.5C2 33.2836 2.47562 32.1171 3.32227 31.2569L8.47865 26.0056C9.32599 25.1465 9.80281 23.9808 9.80432 22.7648V14.5095C9.80432 13.2929 10.2802 12.1261 11.1271 11.2658C11.9741 10.4055 13.1229 9.92218 14.3207 9.92218H22.4484C23.6457 9.92065 24.7933 9.43635 25.6392 8.57571Z" fill="white" stroke="white" stroke-width="3.9252"/>
<path d="M48.2318 24.7643C48.2318 22.623 46.689 20.8711 44.8034 20.8711H39.6607V24.7643H44.8034V29.9228L38.8378 38.3906H32.8037V28.6575H25.9468C22.1583 28.6575 19.0898 32.1419 19.0898 36.4439V42.2838H22.5183C22.5183 45.5151 24.8154 48.1236 27.661 48.1236C30.5066 48.1236 32.8037 45.5151 32.8037 42.2838H40.4835L48.2318 31.2854V24.7643ZM27.661 44.2304C26.7182 44.2304 25.9468 43.3544 25.9468 42.2838H29.3752C29.3752 43.3544 28.6038 44.2304 27.661 44.2304Z" fill="#FE8304"/>
<path d="M24.2314 22.8164H32.8026V26.7096H24.2314V22.8164ZM48.2307 36.4427C45.3851 36.4427 43.088 39.0511 43.088 42.2825C43.088 45.5138 45.3851 48.1223 48.2307 48.1223C51.0764 48.1223 53.3734 45.5138 53.3734 42.2825C53.3734 39.0511 51.0764 36.4427 48.2307 36.4427ZM48.2307 44.2291C47.2879 44.2291 46.5165 43.3531 46.5165 42.2825C46.5165 41.2118 47.2879 40.3359 48.2307 40.3359C49.1736 40.3359 49.945 41.2118 49.945 42.2825C49.945 43.3531 49.1736 44.2291 48.2307 44.2291Z" fill="#FE8304"/>
</svg>
