<svg width="24" height="14" viewBox="0 0 24 14" fill="none" xmlns="http://www.w3.org/2000/svg">
<path d="M20 6C19.8 6 19.6 6 19.5 6.1L17.4 4H20V1L16.3 2.9L13.4 0H9V2H12.6L14.6 4H11L7 6L5 4H0V6H4C1.8 6 0 7.8 0 10C0 12.2 1.8 14 4 14C6.2 14 8 12.2 8 10L10 12H13L16.5 5.9L17.5 6.9C16.6 7.6 16 8.8 16 10C16 12.2 17.8 14 20 14C22.2 14 24 12.2 24 10C24 7.8 22.2 6 20 6ZM4 12C2.9 12 2 11.1 2 10C2 8.9 2.9 8 4 8C5.1 8 6 8.9 6 10C6 11.1 5.1 12 4 12ZM20 12C18.9 12 18 11.1 18 10C18 8.9 18.9 8 20 8C21.1 8 22 8.9 22 10C22 11.1 21.1 12 20 12Z" fill="white"/>
</svg>
