<svg width="29" height="27" viewBox="0 0 29 27" fill="none" xmlns="http://www.w3.org/2000/svg">
<path d="M26.7368 22.2807V23.7661C26.7368 25.4 25.4 26.7368 23.7661 26.7368H2.97076C1.32199 26.7368 0 25.4 0 23.7661V2.97076C0 1.33684 1.32199 0 2.97076 0H23.7661C25.4 0 26.7368 1.33684 26.7368 2.97076V4.45614H13.3684C11.7196 4.45614 10.3977 5.79298 10.3977 7.4269V19.3099C10.3977 20.9439 11.7196 22.2807 13.3684 22.2807H26.7368ZM13.3684 19.3099H28.2222V7.4269H13.3684V19.3099ZM19.3099 15.5965C18.0771 15.5965 17.0819 14.6013 17.0819 13.3684C17.0819 12.1356 18.0771 11.1404 19.3099 11.1404C20.5428 11.1404 21.538 12.1356 21.538 13.3684C21.538 14.6013 20.5428 15.5965 19.3099 15.5965Z" fill="#FFD1A1"/>
</svg>
