<svg width="25" height="16" viewBox="0 0 25 16" fill="none" xmlns="http://www.w3.org/2000/svg">
<path d="M18.7709 4.65137H15.7808V5.64804H18.7709V7.6414H16.7775V8.63808H18.7709V10.6314H15.7808V11.6281H18.7709C19.0351 11.6277 19.2884 11.5226 19.4752 11.3358C19.662 11.1489 19.7672 10.8956 19.7676 10.6314V5.64804C19.7673 5.38379 19.6622 5.13044 19.4753 4.94358C19.2885 4.75672 19.0351 4.65163 18.7709 4.65137ZM14.7842 11.6281H10.7975V8.63808C10.7977 8.37382 10.9028 8.12047 11.0897 7.93361C11.2765 7.74676 11.5299 7.64166 11.7941 7.6414H13.7875V5.64804H10.7975V4.65137H13.7875C14.0517 4.65163 14.3051 4.75672 14.492 4.94358C14.6788 5.13044 14.7839 5.38379 14.7842 5.64804V7.6414C14.7839 7.90565 14.6788 8.15901 14.492 8.34587C14.3051 8.53272 14.0517 8.63781 13.7875 8.63808H11.7941V10.6314H14.7842V11.6281ZM6.06323 11.3789V10.8806H7.55825V5.39888H6.06323V4.90054H8.05659V10.8806H9.5516V11.3789H6.06323Z" fill="white"/>
<path d="M8.30566 4.65137H5.81396V5.64804H7.30898V10.6314H5.81396V11.6281H9.80068V10.6314H8.30566V4.65137Z" fill="white"/>
<rect x="0.436047" y="0.436047" width="24.1279" height="14.8256" rx="3.92442" stroke="white" stroke-width="0.872093"/>
</svg>
