<svg width="20" height="16" viewBox="0 0 20 16" fill="none" xmlns="http://www.w3.org/2000/svg">
<path d="M1 2.74039C1 1.7792 1.80589 1 2.8 1H17.2C18.1941 1 19 1.7792 19 2.74039V7.96154V13.1827C19 14.1439 18.1941 14.9231 17.2 14.9231H2.8C1.80589 14.9231 1 14.1439 1 13.1827V7.96154V2.74039Z" fill="white" stroke="#F88003" stroke-width="1.19738" stroke-linecap="round" stroke-linejoin="round"/>
<path d="M1 4.48047H19H1Z" fill="white"/>
<path d="M1 4.48047H19" stroke="#F88003" stroke-width="1.19738" stroke-linecap="round" stroke-linejoin="round"/>
<path d="M1 7.96143H7.3C7.3 8.83162 7.84 10.572 10 10.572C12.16 10.572 12.7 8.83162 12.7 7.96143H19" fill="white"/>
<path d="M1 7.96143H7.3C7.3 8.83162 7.84 10.572 10 10.572C12.16 10.572 12.7 8.83162 12.7 7.96143H19" stroke="#F88003" stroke-width="1.19738" stroke-linecap="round" stroke-linejoin="round"/>
</svg>
