<svg width="12" height="13" viewBox="0 0 12 13" fill="none" xmlns="http://www.w3.org/2000/svg">
<path d="M5.39182 0.889244C5.57033 0.416475 6.24364 0.416475 6.42215 0.88925L7.57369 4.10103C7.65424 4.3143 7.85951 4.4556 8.08886 4.4556H10.9185C11.441 4.4556 11.6692 5.11113 11.2584 5.43175L9.24463 7.25627C9.05923 7.40095 8.98724 7.64696 9.06573 7.86782L9.80091 11.0064C9.97992 11.5101 9.39989 11.9434 8.96232 11.6329L6.22679 9.88587C6.03548 9.75015 5.77849 9.75015 5.58718 9.88587L2.85167 11.6329C2.41407 11.9434 1.83408 11.5101 2.01306 11.0064L2.74824 7.86782C2.82673 7.64696 2.75477 7.40095 2.56934 7.25627L0.55559 5.43175C0.144737 5.11113 0.37301 4.4556 0.895507 4.4556H3.72509C3.95444 4.4556 4.15972 4.3143 4.24025 4.10103L5.39182 0.889244Z" fill="#FE8304" stroke="#FE8304" stroke-width="0.55639" stroke-linecap="round" stroke-linejoin="round"/>
</svg>
